<?xml version="1.0" encoding="utf-8" standalone="no"?>
<!DOCTYPE svg PUBLIC "-//W3C//DTD SVG 1.1//EN"
  "http://www.w3.org/Graphics/SVG/1.1/DTD/svg11.dtd">
<!-- Created with matplotlib (https://matplotlib.org/) -->
<svg height="288pt" version="1.1" viewBox="0 0 864 288" width="864pt" xmlns="http://www.w3.org/2000/svg" xmlns:xlink="http://www.w3.org/1999/xlink">
 <metadata>
  <rdf:RDF xmlns:cc="http://creativecommons.org/ns#" xmlns:dc="http://purl.org/dc/elements/1.1/" xmlns:rdf="http://www.w3.org/1999/02/22-rdf-syntax-ns#">
   <cc:Work>
    <dc:type rdf:resource="http://purl.org/dc/dcmitype/StillImage"/>
    <dc:date>2021-08-26T08:01:49.319471</dc:date>
    <dc:format>image/svg+xml</dc:format>
    <dc:creator>
     <cc:Agent>
      <dc:title>Matplotlib v3.3.4, https://matplotlib.org/</dc:title>
     </cc:Agent>
    </dc:creator>
   </cc:Work>
  </rdf:RDF>
 </metadata>
 <defs>
  <style type="text/css">*{stroke-linecap:butt;stroke-linejoin:round;}</style>
 </defs>
 <g id="figure_1">
  <g id="patch_1">
   <path d="M 0 288 
L 864 288 
L 864 0 
L 0 0 
z
" style="fill:#ffffff;"/>
  </g>
  <g id="axes_1">
   <g id="patch_2">
    <path d="M 108 256.32 
L 412.363636 256.32 
L 412.363636 34.56 
L 108 34.56 
z
" style="fill:#ffffff;"/>
   </g>
   <g id="matplotlib.axis_1">
    <g id="xtick_1">
     <g id="line2d_1">
      <path clip-path="url(#p2eb1bbd3a1)" d="M 134.271232 256.32 
L 134.271232 34.56 
" style="fill:none;stroke:#cccccc;stroke-linecap:round;stroke-width:0.8;"/>
     </g>
     <g id="text_1">
      <!-- 0 -->
      <g style="fill:#262626;" transform="translate(131.490763 270.477813)scale(0.1 -0.1)">
       <defs>
        <path d="M 4.15625 35.296875 
Q 4.15625 48 6.765625 55.734375 
Q 9.375 63.484375 14.515625 67.671875 
Q 19.671875 71.875 27.484375 71.875 
Q 33.25 71.875 37.59375 69.546875 
Q 41.9375 67.234375 44.765625 62.859375 
Q 47.609375 58.5 49.21875 52.21875 
Q 50.828125 45.953125 50.828125 35.296875 
Q 50.828125 22.703125 48.234375 14.96875 
Q 45.65625 7.234375 40.5 3 
Q 35.359375 -1.21875 27.484375 -1.21875 
Q 17.140625 -1.21875 11.234375 6.203125 
Q 4.15625 15.140625 4.15625 35.296875 
z
M 13.1875 35.296875 
Q 13.1875 17.671875 17.3125 11.828125 
Q 21.4375 6 27.484375 6 
Q 33.546875 6 37.671875 11.859375 
Q 41.796875 17.71875 41.796875 35.296875 
Q 41.796875 52.984375 37.671875 58.78125 
Q 33.546875 64.59375 27.390625 64.59375 
Q 21.34375 64.59375 17.71875 59.46875 
Q 13.1875 52.9375 13.1875 35.296875 
z
" id="ArialMT-48"/>
       </defs>
       <use xlink:href="#ArialMT-48"/>
      </g>
     </g>
    </g>
    <g id="xtick_2">
     <g id="line2d_2">
      <path clip-path="url(#p2eb1bbd3a1)" d="M 184.471423 256.32 
L 184.471423 34.56 
" style="fill:none;stroke:#cccccc;stroke-linecap:round;stroke-width:0.8;"/>
     </g>
     <g id="text_2">
      <!-- 200000 -->
      <g style="fill:#262626;" transform="translate(167.788611 270.477813)scale(0.1 -0.1)">
       <defs>
        <path d="M 50.34375 8.453125 
L 50.34375 0 
L 3.03125 0 
Q 2.9375 3.171875 4.046875 6.109375 
Q 5.859375 10.9375 9.828125 15.625 
Q 13.8125 20.3125 21.34375 26.46875 
Q 33.015625 36.03125 37.109375 41.625 
Q 41.21875 47.21875 41.21875 52.203125 
Q 41.21875 57.421875 37.46875 61 
Q 33.734375 64.59375 27.734375 64.59375 
Q 21.390625 64.59375 17.578125 60.78125 
Q 13.765625 56.984375 13.71875 50.25 
L 4.6875 51.171875 
Q 5.609375 61.28125 11.65625 66.578125 
Q 17.71875 71.875 27.9375 71.875 
Q 38.234375 71.875 44.234375 66.15625 
Q 50.25 60.453125 50.25 52 
Q 50.25 47.703125 48.484375 43.546875 
Q 46.734375 39.40625 42.65625 34.8125 
Q 38.578125 30.21875 29.109375 22.21875 
Q 21.1875 15.578125 18.9375 13.203125 
Q 16.703125 10.84375 15.234375 8.453125 
z
" id="ArialMT-50"/>
       </defs>
       <use xlink:href="#ArialMT-50"/>
       <use x="55.615234" xlink:href="#ArialMT-48"/>
       <use x="111.230469" xlink:href="#ArialMT-48"/>
       <use x="166.845703" xlink:href="#ArialMT-48"/>
       <use x="222.460938" xlink:href="#ArialMT-48"/>
       <use x="278.076172" xlink:href="#ArialMT-48"/>
      </g>
     </g>
    </g>
    <g id="xtick_3">
     <g id="line2d_3">
      <path clip-path="url(#p2eb1bbd3a1)" d="M 234.671614 256.32 
L 234.671614 34.56 
" style="fill:none;stroke:#cccccc;stroke-linecap:round;stroke-width:0.8;"/>
     </g>
     <g id="text_3">
      <!-- 400000 -->
      <g style="fill:#262626;" transform="translate(217.988802 270.477813)scale(0.1 -0.1)">
       <defs>
        <path d="M 32.328125 0 
L 32.328125 17.140625 
L 1.265625 17.140625 
L 1.265625 25.203125 
L 33.9375 71.578125 
L 41.109375 71.578125 
L 41.109375 25.203125 
L 50.78125 25.203125 
L 50.78125 17.140625 
L 41.109375 17.140625 
L 41.109375 0 
z
M 32.328125 25.203125 
L 32.328125 57.46875 
L 9.90625 25.203125 
z
" id="ArialMT-52"/>
       </defs>
       <use xlink:href="#ArialMT-52"/>
       <use x="55.615234" xlink:href="#ArialMT-48"/>
       <use x="111.230469" xlink:href="#ArialMT-48"/>
       <use x="166.845703" xlink:href="#ArialMT-48"/>
       <use x="222.460938" xlink:href="#ArialMT-48"/>
       <use x="278.076172" xlink:href="#ArialMT-48"/>
      </g>
     </g>
    </g>
    <g id="xtick_4">
     <g id="line2d_4">
      <path clip-path="url(#p2eb1bbd3a1)" d="M 284.871806 256.32 
L 284.871806 34.56 
" style="fill:none;stroke:#cccccc;stroke-linecap:round;stroke-width:0.8;"/>
     </g>
     <g id="text_4">
      <!-- 600000 -->
      <g style="fill:#262626;" transform="translate(268.188993 270.477813)scale(0.1 -0.1)">
       <defs>
        <path d="M 49.75 54.046875 
L 41.015625 53.375 
Q 39.84375 58.546875 37.703125 60.890625 
Q 34.125 64.65625 28.90625 64.65625 
Q 24.703125 64.65625 21.53125 62.3125 
Q 17.390625 59.28125 14.984375 53.46875 
Q 12.59375 47.65625 12.5 36.921875 
Q 15.671875 41.75 20.265625 44.09375 
Q 24.859375 46.4375 29.890625 46.4375 
Q 38.671875 46.4375 44.84375 39.96875 
Q 51.03125 33.5 51.03125 23.25 
Q 51.03125 16.5 48.125 10.71875 
Q 45.21875 4.9375 40.140625 1.859375 
Q 35.0625 -1.21875 28.609375 -1.21875 
Q 17.625 -1.21875 10.6875 6.859375 
Q 3.765625 14.9375 3.765625 33.5 
Q 3.765625 54.25 11.421875 63.671875 
Q 18.109375 71.875 29.4375 71.875 
Q 37.890625 71.875 43.28125 67.140625 
Q 48.6875 62.40625 49.75 54.046875 
z
M 13.875 23.1875 
Q 13.875 18.65625 15.796875 14.5 
Q 17.71875 10.359375 21.1875 8.171875 
Q 24.65625 6 28.46875 6 
Q 34.03125 6 38.03125 10.484375 
Q 42.046875 14.984375 42.046875 22.703125 
Q 42.046875 30.125 38.078125 34.390625 
Q 34.125 38.671875 28.125 38.671875 
Q 22.171875 38.671875 18.015625 34.390625 
Q 13.875 30.125 13.875 23.1875 
z
" id="ArialMT-54"/>
       </defs>
       <use xlink:href="#ArialMT-54"/>
       <use x="55.615234" xlink:href="#ArialMT-48"/>
       <use x="111.230469" xlink:href="#ArialMT-48"/>
       <use x="166.845703" xlink:href="#ArialMT-48"/>
       <use x="222.460938" xlink:href="#ArialMT-48"/>
       <use x="278.076172" xlink:href="#ArialMT-48"/>
      </g>
     </g>
    </g>
    <g id="xtick_5">
     <g id="line2d_5">
      <path clip-path="url(#p2eb1bbd3a1)" d="M 335.071997 256.32 
L 335.071997 34.56 
" style="fill:none;stroke:#cccccc;stroke-linecap:round;stroke-width:0.8;"/>
     </g>
     <g id="text_5">
      <!-- 800000 -->
      <g style="fill:#262626;" transform="translate(318.389184 270.477813)scale(0.1 -0.1)">
       <defs>
        <path d="M 17.671875 38.8125 
Q 12.203125 40.828125 9.5625 44.53125 
Q 6.9375 48.25 6.9375 53.421875 
Q 6.9375 61.234375 12.546875 66.546875 
Q 18.171875 71.875 27.484375 71.875 
Q 36.859375 71.875 42.578125 66.421875 
Q 48.296875 60.984375 48.296875 53.171875 
Q 48.296875 48.1875 45.671875 44.5 
Q 43.0625 40.828125 37.75 38.8125 
Q 44.34375 36.671875 47.78125 31.875 
Q 51.21875 27.09375 51.21875 20.453125 
Q 51.21875 11.28125 44.71875 5.03125 
Q 38.234375 -1.21875 27.640625 -1.21875 
Q 17.046875 -1.21875 10.546875 5.046875 
Q 4.046875 11.328125 4.046875 20.703125 
Q 4.046875 27.6875 7.59375 32.390625 
Q 11.140625 37.109375 17.671875 38.8125 
z
M 15.921875 53.71875 
Q 15.921875 48.640625 19.1875 45.40625 
Q 22.46875 42.1875 27.6875 42.1875 
Q 32.765625 42.1875 36.015625 45.375 
Q 39.265625 48.578125 39.265625 53.21875 
Q 39.265625 58.0625 35.90625 61.359375 
Q 32.5625 64.65625 27.59375 64.65625 
Q 22.5625 64.65625 19.234375 61.421875 
Q 15.921875 58.203125 15.921875 53.71875 
z
M 13.09375 20.65625 
Q 13.09375 16.890625 14.875 13.375 
Q 16.65625 9.859375 20.171875 7.921875 
Q 23.6875 6 27.734375 6 
Q 34.03125 6 38.125 10.046875 
Q 42.234375 14.109375 42.234375 20.359375 
Q 42.234375 26.703125 38.015625 30.859375 
Q 33.796875 35.015625 27.4375 35.015625 
Q 21.234375 35.015625 17.15625 30.90625 
Q 13.09375 26.8125 13.09375 20.65625 
z
" id="ArialMT-56"/>
       </defs>
       <use xlink:href="#ArialMT-56"/>
       <use x="55.615234" xlink:href="#ArialMT-48"/>
       <use x="111.230469" xlink:href="#ArialMT-48"/>
       <use x="166.845703" xlink:href="#ArialMT-48"/>
       <use x="222.460938" xlink:href="#ArialMT-48"/>
       <use x="278.076172" xlink:href="#ArialMT-48"/>
      </g>
     </g>
    </g>
    <g id="xtick_6">
     <g id="line2d_6">
      <path clip-path="url(#p2eb1bbd3a1)" d="M 385.272188 256.32 
L 385.272188 34.56 
" style="fill:none;stroke:#cccccc;stroke-linecap:round;stroke-width:0.8;"/>
     </g>
     <g id="text_6">
      <!-- 1000000 -->
      <g style="fill:#262626;" transform="translate(365.808907 270.477813)scale(0.1 -0.1)">
       <defs>
        <path d="M 37.25 0 
L 28.46875 0 
L 28.46875 56 
Q 25.296875 52.984375 20.140625 49.953125 
Q 14.984375 46.921875 10.890625 45.40625 
L 10.890625 53.90625 
Q 18.265625 57.375 23.78125 62.296875 
Q 29.296875 67.234375 31.59375 71.875 
L 37.25 71.875 
z
" id="ArialMT-49"/>
       </defs>
       <use xlink:href="#ArialMT-49"/>
       <use x="55.615234" xlink:href="#ArialMT-48"/>
       <use x="111.230469" xlink:href="#ArialMT-48"/>
       <use x="166.845703" xlink:href="#ArialMT-48"/>
       <use x="222.460938" xlink:href="#ArialMT-48"/>
       <use x="278.076172" xlink:href="#ArialMT-48"/>
       <use x="333.691406" xlink:href="#ArialMT-48"/>
      </g>
     </g>
    </g>
    <g id="text_7">
     <!-- LIMIT_BAL -->
     <g style="fill:#262626;" transform="translate(222.668928 287.202031)scale(0.15 -0.15)">
      <defs>
       <path d="M 7.328125 0 
L 7.328125 71.578125 
L 16.796875 71.578125 
L 16.796875 8.453125 
L 52.046875 8.453125 
L 52.046875 0 
z
" id="ArialMT-76"/>
       <path d="M 9.328125 0 
L 9.328125 71.578125 
L 18.796875 71.578125 
L 18.796875 0 
z
" id="ArialMT-73"/>
       <path d="M 7.421875 0 
L 7.421875 71.578125 
L 21.6875 71.578125 
L 38.625 20.90625 
Q 40.96875 13.8125 42.046875 10.296875 
Q 43.265625 14.203125 45.84375 21.78125 
L 62.984375 71.578125 
L 75.734375 71.578125 
L 75.734375 0 
L 66.609375 0 
L 66.609375 59.90625 
L 45.796875 0 
L 37.25 0 
L 16.546875 60.9375 
L 16.546875 0 
z
" id="ArialMT-77"/>
       <path d="M 25.921875 0 
L 25.921875 63.140625 
L 2.34375 63.140625 
L 2.34375 71.578125 
L 59.078125 71.578125 
L 59.078125 63.140625 
L 35.40625 63.140625 
L 35.40625 0 
z
" id="ArialMT-84"/>
       <path d="M -1.515625 -19.875 
L -1.515625 -13.53125 
L 56.734375 -13.53125 
L 56.734375 -19.875 
z
" id="ArialMT-95"/>
       <path d="M 7.328125 0 
L 7.328125 71.578125 
L 34.1875 71.578125 
Q 42.390625 71.578125 47.34375 69.40625 
Q 52.296875 67.234375 55.09375 62.71875 
Q 57.90625 58.203125 57.90625 53.265625 
Q 57.90625 48.6875 55.421875 44.625 
Q 52.9375 40.578125 47.90625 38.09375 
Q 54.390625 36.1875 57.875 31.59375 
Q 61.375 27 61.375 20.75 
Q 61.375 15.71875 59.25 11.390625 
Q 57.125 7.078125 54 4.734375 
Q 50.875 2.390625 46.15625 1.1875 
Q 41.453125 0 34.625 0 
z
M 16.796875 41.5 
L 32.28125 41.5 
Q 38.578125 41.5 41.3125 42.328125 
Q 44.921875 43.40625 46.75 45.890625 
Q 48.578125 48.390625 48.578125 52.15625 
Q 48.578125 55.71875 46.875 58.421875 
Q 45.171875 61.140625 41.984375 62.140625 
Q 38.8125 63.140625 31.109375 63.140625 
L 16.796875 63.140625 
z
M 16.796875 8.453125 
L 34.625 8.453125 
Q 39.203125 8.453125 41.0625 8.796875 
Q 44.34375 9.375 46.53125 10.734375 
Q 48.734375 12.109375 50.140625 14.71875 
Q 51.5625 17.328125 51.5625 20.75 
Q 51.5625 24.75 49.515625 27.703125 
Q 47.46875 30.671875 43.828125 31.859375 
Q 40.1875 33.0625 33.34375 33.0625 
L 16.796875 33.0625 
z
" id="ArialMT-66"/>
       <path d="M -0.140625 0 
L 27.34375 71.578125 
L 37.546875 71.578125 
L 66.84375 0 
L 56.0625 0 
L 47.703125 21.6875 
L 17.78125 21.6875 
L 9.90625 0 
z
M 20.515625 29.390625 
L 44.78125 29.390625 
L 37.3125 49.21875 
Q 33.890625 58.25 32.234375 64.0625 
Q 30.859375 57.171875 28.375 50.390625 
z
" id="ArialMT-65"/>
      </defs>
      <use xlink:href="#ArialMT-76"/>
      <use x="55.615234" xlink:href="#ArialMT-73"/>
      <use x="83.398438" xlink:href="#ArialMT-77"/>
      <use x="166.699219" xlink:href="#ArialMT-73"/>
      <use x="194.482422" xlink:href="#ArialMT-84"/>
      <use x="255.566406" xlink:href="#ArialMT-95"/>
      <use x="311.181641" xlink:href="#ArialMT-66"/>
      <use x="377.880859" xlink:href="#ArialMT-65"/>
      <use x="444.580078" xlink:href="#ArialMT-76"/>
     </g>
    </g>
   </g>
   <g id="matplotlib.axis_2">
    <g id="ytick_1">
     <g id="line2d_7">
      <path clip-path="url(#p2eb1bbd3a1)" d="M 108 256.32 
L 412.363636 256.32 
" style="fill:none;stroke:#cccccc;stroke-linecap:round;stroke-width:0.8;"/>
     </g>
     <g id="text_8">
      <!-- 0 -->
      <g style="fill:#262626;" transform="translate(95.439063 259.898906)scale(0.1 -0.1)">
       <use xlink:href="#ArialMT-48"/>
      </g>
     </g>
    </g>
    <g id="ytick_2">
     <g id="line2d_8">
      <path clip-path="url(#p2eb1bbd3a1)" d="M 108 223.424558 
L 412.363636 223.424558 
" style="fill:none;stroke:#cccccc;stroke-linecap:round;stroke-width:0.8;"/>
     </g>
     <g id="text_9">
      <!-- 1 -->
      <g style="fill:#262626;" transform="translate(95.439063 227.003464)scale(0.1 -0.1)">
       <use xlink:href="#ArialMT-49"/>
      </g>
     </g>
    </g>
    <g id="ytick_3">
     <g id="line2d_9">
      <path clip-path="url(#p2eb1bbd3a1)" d="M 108 190.529115 
L 412.363636 190.529115 
" style="fill:none;stroke:#cccccc;stroke-linecap:round;stroke-width:0.8;"/>
     </g>
     <g id="text_10">
      <!-- 2 -->
      <g style="fill:#262626;" transform="translate(95.439063 194.108021)scale(0.1 -0.1)">
       <use xlink:href="#ArialMT-50"/>
      </g>
     </g>
    </g>
    <g id="ytick_4">
     <g id="line2d_10">
      <path clip-path="url(#p2eb1bbd3a1)" d="M 108 157.633673 
L 412.363636 157.633673 
" style="fill:none;stroke:#cccccc;stroke-linecap:round;stroke-width:0.8;"/>
     </g>
     <g id="text_11">
      <!-- 3 -->
      <g style="fill:#262626;" transform="translate(95.439063 161.212579)scale(0.1 -0.1)">
       <defs>
        <path d="M 4.203125 18.890625 
L 12.984375 20.0625 
Q 14.5 12.59375 18.140625 9.296875 
Q 21.78125 6 27 6 
Q 33.203125 6 37.46875 10.296875 
Q 41.75 14.59375 41.75 20.953125 
Q 41.75 27 37.796875 30.921875 
Q 33.84375 34.859375 27.734375 34.859375 
Q 25.25 34.859375 21.53125 33.890625 
L 22.515625 41.609375 
Q 23.390625 41.5 23.921875 41.5 
Q 29.546875 41.5 34.03125 44.421875 
Q 38.53125 47.359375 38.53125 53.46875 
Q 38.53125 58.296875 35.25 61.46875 
Q 31.984375 64.65625 26.8125 64.65625 
Q 21.6875 64.65625 18.265625 61.421875 
Q 14.84375 58.203125 13.875 51.765625 
L 5.078125 53.328125 
Q 6.6875 62.15625 12.390625 67.015625 
Q 18.109375 71.875 26.609375 71.875 
Q 32.46875 71.875 37.390625 69.359375 
Q 42.328125 66.84375 44.9375 62.5 
Q 47.5625 58.15625 47.5625 53.265625 
Q 47.5625 48.640625 45.0625 44.828125 
Q 42.578125 41.015625 37.703125 38.765625 
Q 44.046875 37.3125 47.5625 32.6875 
Q 51.078125 28.078125 51.078125 21.140625 
Q 51.078125 11.765625 44.234375 5.25 
Q 37.40625 -1.265625 26.953125 -1.265625 
Q 17.53125 -1.265625 11.296875 4.34375 
Q 5.078125 9.96875 4.203125 18.890625 
z
" id="ArialMT-51"/>
       </defs>
       <use xlink:href="#ArialMT-51"/>
      </g>
     </g>
    </g>
    <g id="ytick_5">
     <g id="line2d_11">
      <path clip-path="url(#p2eb1bbd3a1)" d="M 108 124.73823 
L 412.363636 124.73823 
" style="fill:none;stroke:#cccccc;stroke-linecap:round;stroke-width:0.8;"/>
     </g>
     <g id="text_12">
      <!-- 4 -->
      <g style="fill:#262626;" transform="translate(95.439063 128.317136)scale(0.1 -0.1)">
       <use xlink:href="#ArialMT-52"/>
      </g>
     </g>
    </g>
    <g id="ytick_6">
     <g id="line2d_12">
      <path clip-path="url(#p2eb1bbd3a1)" d="M 108 91.842788 
L 412.363636 91.842788 
" style="fill:none;stroke:#cccccc;stroke-linecap:round;stroke-width:0.8;"/>
     </g>
     <g id="text_13">
      <!-- 5 -->
      <g style="fill:#262626;" transform="translate(95.439063 95.421694)scale(0.1 -0.1)">
       <defs>
        <path d="M 4.15625 18.75 
L 13.375 19.53125 
Q 14.40625 12.796875 18.140625 9.390625 
Q 21.875 6 27.15625 6 
Q 33.5 6 37.890625 10.78125 
Q 42.28125 15.578125 42.28125 23.484375 
Q 42.28125 31 38.0625 35.34375 
Q 33.84375 39.703125 27 39.703125 
Q 22.75 39.703125 19.328125 37.765625 
Q 15.921875 35.84375 13.96875 32.765625 
L 5.71875 33.84375 
L 12.640625 70.609375 
L 48.25 70.609375 
L 48.25 62.203125 
L 19.671875 62.203125 
L 15.828125 42.96875 
Q 22.265625 47.46875 29.34375 47.46875 
Q 38.71875 47.46875 45.15625 40.96875 
Q 51.609375 34.46875 51.609375 24.265625 
Q 51.609375 14.546875 45.953125 7.46875 
Q 39.0625 -1.21875 27.15625 -1.21875 
Q 17.390625 -1.21875 11.203125 4.25 
Q 5.03125 9.71875 4.15625 18.75 
z
" id="ArialMT-53"/>
       </defs>
       <use xlink:href="#ArialMT-53"/>
      </g>
     </g>
    </g>
    <g id="ytick_7">
     <g id="line2d_13">
      <path clip-path="url(#p2eb1bbd3a1)" d="M 108 58.947345 
L 412.363636 58.947345 
" style="fill:none;stroke:#cccccc;stroke-linecap:round;stroke-width:0.8;"/>
     </g>
     <g id="text_14">
      <!-- 6 -->
      <g style="fill:#262626;" transform="translate(95.439063 62.526251)scale(0.1 -0.1)">
       <use xlink:href="#ArialMT-54"/>
      </g>
     </g>
    </g>
    <g id="text_15">
     <!-- 1e−6 -->
     <g style="fill:#262626;" transform="translate(108 31.56)scale(0.1 -0.1)">
      <defs>
       <path d="M 42.09375 16.703125 
L 51.171875 15.578125 
Q 49.03125 7.625 43.21875 3.21875 
Q 37.40625 -1.171875 28.375 -1.171875 
Q 17 -1.171875 10.328125 5.828125 
Q 3.65625 12.84375 3.65625 25.484375 
Q 3.65625 38.578125 10.390625 45.796875 
Q 17.140625 53.03125 27.875 53.03125 
Q 38.28125 53.03125 44.875 45.953125 
Q 51.46875 38.875 51.46875 26.03125 
Q 51.46875 25.25 51.421875 23.6875 
L 12.75 23.6875 
Q 13.234375 15.140625 17.578125 10.59375 
Q 21.921875 6.0625 28.421875 6.0625 
Q 33.25 6.0625 36.671875 8.59375 
Q 40.09375 11.140625 42.09375 16.703125 
z
M 13.234375 30.90625 
L 42.1875 30.90625 
Q 41.609375 37.453125 38.875 40.71875 
Q 34.671875 45.796875 27.984375 45.796875 
Q 21.921875 45.796875 17.796875 41.75 
Q 13.671875 37.703125 13.234375 30.90625 
z
" id="ArialMT-101"/>
       <path d="M 52.828125 31.203125 
L 5.5625 31.203125 
L 5.5625 39.40625 
L 52.828125 39.40625 
z
" id="ArialMT-8722"/>
      </defs>
      <use xlink:href="#ArialMT-49"/>
      <use x="55.615234" xlink:href="#ArialMT-101"/>
      <use x="111.230469" xlink:href="#ArialMT-8722"/>
      <use x="169.628906" xlink:href="#ArialMT-54"/>
     </g>
    </g>
   </g>
   <g id="PolyCollection_1">
    <defs>
     <path d="M 123.524504 -31.861845 
L 123.524504 -31.68 
L 124.906436 -31.68 
L 126.288367 -31.68 
L 127.670299 -31.68 
L 129.052231 -31.68 
L 130.434163 -31.68 
L 131.816094 -31.68 
L 133.198026 -31.68 
L 134.579958 -31.68 
L 135.96189 -31.68 
L 137.343821 -31.68 
L 138.725753 -31.68 
L 140.107685 -31.68 
L 141.489617 -31.68 
L 142.871549 -31.68 
L 144.25348 -31.68 
L 145.635412 -31.68 
L 147.017344 -31.68 
L 148.399276 -31.68 
L 149.781207 -31.68 
L 151.163139 -31.68 
L 152.545071 -31.68 
L 153.927003 -31.68 
L 155.308934 -31.68 
L 156.690866 -31.68 
L 158.072798 -31.68 
L 159.45473 -31.68 
L 160.836662 -31.68 
L 162.218593 -31.68 
L 163.600525 -31.68 
L 164.982457 -31.68 
L 166.364389 -31.68 
L 167.74632 -31.68 
L 169.128252 -31.68 
L 170.510184 -31.68 
L 171.892116 -31.68 
L 173.274047 -31.68 
L 174.655979 -31.68 
L 176.037911 -31.68 
L 177.419843 -31.68 
L 178.801774 -31.68 
L 180.183706 -31.68 
L 181.565638 -31.68 
L 182.94757 -31.68 
L 184.329502 -31.68 
L 185.711433 -31.68 
L 187.093365 -31.68 
L 188.475297 -31.68 
L 189.857229 -31.68 
L 191.23916 -31.68 
L 192.621092 -31.68 
L 194.003024 -31.68 
L 195.384956 -31.68 
L 196.766887 -31.68 
L 198.148819 -31.68 
L 199.530751 -31.68 
L 200.912683 -31.68 
L 202.294615 -31.68 
L 203.676546 -31.68 
L 205.058478 -31.68 
L 206.44041 -31.68 
L 207.822342 -31.68 
L 209.204273 -31.68 
L 210.586205 -31.68 
L 211.968137 -31.68 
L 213.350069 -31.68 
L 214.732 -31.68 
L 216.113932 -31.68 
L 217.495864 -31.68 
L 218.877796 -31.68 
L 220.259728 -31.68 
L 221.641659 -31.68 
L 223.023591 -31.68 
L 224.405523 -31.68 
L 225.787455 -31.68 
L 227.169386 -31.68 
L 228.551318 -31.68 
L 229.93325 -31.68 
L 231.315182 -31.68 
L 232.697113 -31.68 
L 234.079045 -31.68 
L 235.460977 -31.68 
L 236.842909 -31.68 
L 238.224841 -31.68 
L 239.606772 -31.68 
L 240.988704 -31.68 
L 242.370636 -31.68 
L 243.752568 -31.68 
L 245.134499 -31.68 
L 246.516431 -31.68 
L 247.898363 -31.68 
L 249.280295 -31.68 
L 250.662226 -31.68 
L 252.044158 -31.68 
L 253.42609 -31.68 
L 254.808022 -31.68 
L 256.189954 -31.68 
L 257.571885 -31.68 
L 258.953817 -31.68 
L 260.335749 -31.68 
L 261.717681 -31.68 
L 263.099612 -31.68 
L 264.481544 -31.68 
L 265.863476 -31.68 
L 267.245408 -31.68 
L 268.627339 -31.68 
L 270.009271 -31.68 
L 271.391203 -31.68 
L 272.773135 -31.68 
L 274.155066 -31.68 
L 275.536998 -31.68 
L 276.91893 -31.68 
L 278.300862 -31.68 
L 279.682794 -31.68 
L 281.064725 -31.68 
L 282.446657 -31.68 
L 283.828589 -31.68 
L 285.210521 -31.68 
L 286.592452 -31.68 
L 287.974384 -31.68 
L 289.356316 -31.68 
L 290.738248 -31.68 
L 292.120179 -31.68 
L 293.502111 -31.68 
L 294.884043 -31.68 
L 296.265975 -31.68 
L 297.647907 -31.68 
L 299.029838 -31.68 
L 300.41177 -31.68 
L 301.793702 -31.68 
L 303.175634 -31.68 
L 304.557565 -31.68 
L 305.939497 -31.68 
L 307.321429 -31.68 
L 308.703361 -31.68 
L 310.085292 -31.68 
L 311.467224 -31.68 
L 312.849156 -31.68 
L 314.231088 -31.68 
L 315.61302 -31.68 
L 316.994951 -31.68 
L 318.376883 -31.68 
L 319.758815 -31.68 
L 321.140747 -31.68 
L 322.522678 -31.68 
L 323.90461 -31.68 
L 325.286542 -31.68 
L 326.668474 -31.68 
L 328.050405 -31.68 
L 329.432337 -31.68 
L 330.814269 -31.68 
L 332.196201 -31.68 
L 333.578133 -31.68 
L 334.960064 -31.68 
L 336.341996 -31.68 
L 337.723928 -31.68 
L 339.10586 -31.68 
L 340.487791 -31.68 
L 341.869723 -31.68 
L 343.251655 -31.68 
L 344.633587 -31.68 
L 346.015518 -31.68 
L 347.39745 -31.68 
L 348.779382 -31.68 
L 350.161314 -31.68 
L 351.543246 -31.68 
L 352.925177 -31.68 
L 354.307109 -31.68 
L 355.689041 -31.68 
L 357.070973 -31.68 
L 358.452904 -31.68 
L 359.834836 -31.68 
L 361.216768 -31.68 
L 362.5987 -31.68 
L 363.980631 -31.68 
L 365.362563 -31.68 
L 366.744495 -31.68 
L 368.126427 -31.68 
L 369.508358 -31.68 
L 370.89029 -31.68 
L 372.272222 -31.68 
L 373.654154 -31.68 
L 375.036086 -31.68 
L 376.418017 -31.68 
L 377.799949 -31.68 
L 379.181881 -31.68 
L 380.563813 -31.68 
L 381.945744 -31.68 
L 383.327676 -31.68 
L 384.709608 -31.68 
L 386.09154 -31.68 
L 387.473471 -31.68 
L 388.855403 -31.68 
L 390.237335 -31.68 
L 391.619267 -31.68 
L 393.001199 -31.68 
L 394.38313 -31.68 
L 395.765062 -31.68 
L 397.146994 -31.68 
L 398.528926 -31.68 
L 398.528926 -31.680354 
L 398.528926 -31.680354 
L 397.146994 -31.680862 
L 395.765062 -31.681903 
L 394.38313 -31.683809 
L 393.001199 -31.686911 
L 391.619267 -31.691373 
L 390.237335 -31.696971 
L 388.855403 -31.702966 
L 387.473471 -31.708182 
L 386.09154 -31.711361 
L 384.709608 -31.711647 
L 383.327676 -31.708961 
L 381.945744 -31.704033 
L 380.563813 -31.698086 
L 379.181881 -31.692342 
L 377.799949 -31.687638 
L 376.418017 -31.684286 
L 375.036086 -31.682181 
L 373.654154 -31.681007 
L 372.272222 -31.680421 
L 370.89029 -31.68016 
L 369.508358 -31.680055 
L 368.126427 -31.680017 
L 366.744495 -31.680005 
L 365.362563 -31.680001 
L 363.980631 -31.68 
L 362.5987 -31.68 
L 361.216768 -31.68 
L 359.834836 -31.68 
L 358.452904 -31.68 
L 357.070973 -31.68 
L 355.689041 -31.680001 
L 354.307109 -31.680005 
L 352.925177 -31.680018 
L 351.543246 -31.680062 
L 350.161314 -31.680189 
L 348.779382 -31.680527 
L 347.39745 -31.681334 
L 346.015518 -31.683066 
L 344.633587 -31.686418 
L 343.251655 -31.69225 
L 341.869723 -31.701361 
L 340.487791 -31.714139 
L 339.10586 -31.730203 
L 337.723928 -31.748303 
L 336.341996 -31.766605 
L 334.960064 -31.783345 
L 333.578133 -31.797555 
L 332.196201 -31.809553 
L 330.814269 -31.820903 
L 329.432337 -31.833832 
L 328.050405 -31.850245 
L 326.668474 -31.870771 
L 325.286542 -31.894394 
L 323.90461 -31.919059 
L 322.522678 -31.943122 
L 321.140747 -31.966811 
L 319.758815 -31.992666 
L 318.376883 -32.024365 
L 316.994951 -32.064358 
L 315.61302 -32.111522 
L 314.231088 -32.160272 
L 312.849156 -32.201947 
L 311.467224 -32.228075 
L 310.085292 -32.234045 
L 308.703361 -32.221268 
L 307.321429 -32.19672 
L 305.939497 -32.17025 
L 304.557565 -32.151281 
L 303.175634 -32.146589 
L 301.793702 -32.159782 
L 300.41177 -32.191943 
L 299.029838 -32.24247 
L 297.647907 -32.30959 
L 296.265975 -32.39062 
L 294.884043 -32.482203 
L 293.502111 -32.580421 
L 292.120179 -32.680556 
L 290.738248 -32.776588 
L 289.356316 -32.861134 
L 287.974384 -32.926623 
L 286.592452 -32.967752 
L 285.210521 -32.984098 
L 283.828589 -32.98122 
L 282.446657 -32.969255 
L 281.064725 -32.959534 
L 279.682794 -32.960971 
L 278.300862 -32.978264 
L 276.91893 -33.013501 
L 275.536998 -33.0725 
L 274.155066 -33.177083 
L 272.773135 -33.383502 
L 271.391203 -33.803381 
L 270.009271 -34.616037 
L 268.627339 -36.052497 
L 267.245408 -38.330553 
L 265.863476 -41.538423 
L 264.481544 -45.504437 
L 263.099612 -49.730969 
L 261.717681 -53.47151 
L 260.335749 -55.963777 
L 258.953817 -56.726657 
L 257.571885 -55.763232 
L 256.189954 -53.550894 
L 254.808022 -50.825435 
L 253.42609 -48.285948 
L 252.044158 -46.374817 
L 250.662226 -45.216596 
L 249.280295 -44.698269 
L 247.898363 -44.611563 
L 246.516431 -44.776791 
L 245.134499 -45.10427 
L 243.752568 -45.591138 
L 242.370636 -46.278381 
L 240.988704 -47.199803 
L 239.606772 -48.346747 
L 238.224841 -49.660546 
L 236.842909 -51.056899 
L 235.460977 -52.478899 
L 234.079045 -53.959245 
L 232.697113 -55.64995 
L 231.315182 -57.772735 
L 229.93325 -60.47962 
L 228.551318 -63.683717 
L 227.169386 -66.974605 
L 225.787455 -69.712142 
L 224.405523 -71.287993 
L 223.023591 -71.422528 
L 221.641659 -70.323535 
L 220.259728 -68.613149 
L 218.877796 -67.07191 
L 217.495864 -66.346399 
L 216.113932 -66.758326 
L 214.732 -68.267563 
L 213.350069 -70.556305 
L 211.968137 -73.167776 
L 210.586205 -75.645794 
L 209.204273 -77.646859 
L 207.822342 -79.011198 
L 206.44041 -79.784449 
L 205.058478 -80.188591 
L 203.676546 -80.552458 
L 202.294615 -81.223079 
L 200.912683 -82.482389 
L 199.530751 -84.488928 
L 198.148819 -87.256401 
L 196.766887 -90.674888 
L 195.384956 -94.572783 
L 194.003024 -98.798682 
L 192.621092 -103.275543 
L 191.23916 -107.972835 
L 189.857229 -112.788117 
L 188.475297 -117.414381 
L 187.093365 -121.320762 
L 185.711433 -123.920148 
L 184.329502 -124.855844 
L 182.94757 -124.226724 
L 181.565638 -122.594627 
L 180.183706 -120.764206 
L 178.801774 -119.466767 
L 177.419843 -119.108129 
L 176.037911 -119.667967 
L 174.655979 -120.753765 
L 173.274047 -121.771173 
L 171.892116 -122.156102 
L 170.510184 -121.593771 
L 169.128252 -120.141232 
L 167.74632 -118.204648 
L 166.364389 -116.392312 
L 164.982457 -115.319846 
L 163.600525 -115.447798 
L 162.218593 -116.994442 
L 160.836662 -119.926725 
L 159.45473 -124.01626 
L 158.072798 -128.948683 
L 156.690866 -134.465896 
L 155.308934 -140.484085 
L 153.927003 -147.09189 
L 152.545071 -154.360549 
L 151.163139 -162.02978 
L 149.781207 -169.290369 
L 148.399276 -174.895009 
L 147.017344 -177.60733 
L 145.635412 -176.700438 
L 144.25348 -172.135681 
L 142.871549 -164.312494 
L 141.489617 -153.655906 
L 140.107685 -140.433614 
L 138.725753 -124.947868 
L 137.343821 -107.880268 
L 135.96189 -90.431078 
L 134.579958 -74.087129 
L 133.198026 -60.161487 
L 131.816094 -49.40004 
L 130.434163 -41.861129 
L 129.052231 -37.07022 
L 127.670299 -34.305448 
L 126.288367 -32.855025 
L 124.906436 -32.162707 
L 123.524504 -31.861845 
z
" id="m80c2561e2a" style="stroke:#77dd76;"/>
    </defs>
    <g clip-path="url(#p2eb1bbd3a1)">
     <use style="fill:#77dd76;fill-opacity:0.25;stroke:#77dd76;" x="0" xlink:href="#m80c2561e2a" y="288"/>
    </g>
   </g>
   <g id="PolyCollection_2">
    <defs>
     <path d="M 121.834711 -32.067229 
L 121.834711 -31.68 
L 122.905684 -31.68 
L 123.976658 -31.68 
L 125.047632 -31.68 
L 126.118605 -31.68 
L 127.189579 -31.68 
L 128.260553 -31.68 
L 129.331526 -31.68 
L 130.4025 -31.68 
L 131.473474 -31.68 
L 132.544447 -31.68 
L 133.615421 -31.68 
L 134.686395 -31.68 
L 135.757368 -31.68 
L 136.828342 -31.68 
L 137.899316 -31.68 
L 138.970289 -31.68 
L 140.041263 -31.68 
L 141.112237 -31.68 
L 142.18321 -31.68 
L 143.254184 -31.68 
L 144.325158 -31.68 
L 145.396131 -31.68 
L 146.467105 -31.68 
L 147.538079 -31.68 
L 148.609052 -31.68 
L 149.680026 -31.68 
L 150.751 -31.68 
L 151.821973 -31.68 
L 152.892947 -31.68 
L 153.963921 -31.68 
L 155.034894 -31.68 
L 156.105868 -31.68 
L 157.176842 -31.68 
L 158.247815 -31.68 
L 159.318789 -31.68 
L 160.389763 -31.68 
L 161.460736 -31.68 
L 162.53171 -31.68 
L 163.602684 -31.68 
L 164.673657 -31.68 
L 165.744631 -31.68 
L 166.815605 -31.68 
L 167.886578 -31.68 
L 168.957552 -31.68 
L 170.028526 -31.68 
L 171.099499 -31.68 
L 172.170473 -31.68 
L 173.241447 -31.68 
L 174.31242 -31.68 
L 175.383394 -31.68 
L 176.454368 -31.68 
L 177.525341 -31.68 
L 178.596315 -31.68 
L 179.667289 -31.68 
L 180.738262 -31.68 
L 181.809236 -31.68 
L 182.88021 -31.68 
L 183.951183 -31.68 
L 185.022157 -31.68 
L 186.093131 -31.68 
L 187.164104 -31.68 
L 188.235078 -31.68 
L 189.306052 -31.68 
L 190.377025 -31.68 
L 191.447999 -31.68 
L 192.518973 -31.68 
L 193.589946 -31.68 
L 194.66092 -31.68 
L 195.731894 -31.68 
L 196.802867 -31.68 
L 197.873841 -31.68 
L 198.944815 -31.68 
L 200.015788 -31.68 
L 201.086762 -31.68 
L 202.157736 -31.68 
L 203.228709 -31.68 
L 204.299683 -31.68 
L 205.370657 -31.68 
L 206.44163 -31.68 
L 207.512604 -31.68 
L 208.583578 -31.68 
L 209.654551 -31.68 
L 210.725525 -31.68 
L 211.796499 -31.68 
L 212.867472 -31.68 
L 213.938446 -31.68 
L 215.00942 -31.68 
L 216.080393 -31.68 
L 217.151367 -31.68 
L 218.222341 -31.68 
L 219.293314 -31.68 
L 220.364288 -31.68 
L 221.435262 -31.68 
L 222.506235 -31.68 
L 223.577209 -31.68 
L 224.648183 -31.68 
L 225.719156 -31.68 
L 226.79013 -31.68 
L 227.861104 -31.68 
L 228.932077 -31.68 
L 230.003051 -31.68 
L 231.074025 -31.68 
L 232.144998 -31.68 
L 233.215972 -31.68 
L 234.286946 -31.68 
L 235.357919 -31.68 
L 236.428893 -31.68 
L 237.499867 -31.68 
L 238.57084 -31.68 
L 239.641814 -31.68 
L 240.712788 -31.68 
L 241.783761 -31.68 
L 242.854735 -31.68 
L 243.925709 -31.68 
L 244.996682 -31.68 
L 246.067656 -31.68 
L 247.13863 -31.68 
L 248.209603 -31.68 
L 249.280577 -31.68 
L 250.351551 -31.68 
L 251.422524 -31.68 
L 252.493498 -31.68 
L 253.564472 -31.68 
L 254.635445 -31.68 
L 255.706419 -31.68 
L 256.777393 -31.68 
L 257.848366 -31.68 
L 258.91934 -31.68 
L 259.990313 -31.68 
L 261.061287 -31.68 
L 262.132261 -31.68 
L 263.203234 -31.68 
L 264.274208 -31.68 
L 265.345182 -31.68 
L 266.416155 -31.68 
L 267.487129 -31.68 
L 268.558103 -31.68 
L 269.629076 -31.68 
L 270.70005 -31.68 
L 271.771024 -31.68 
L 272.841997 -31.68 
L 273.912971 -31.68 
L 274.983945 -31.68 
L 276.054918 -31.68 
L 277.125892 -31.68 
L 278.196866 -31.68 
L 279.267839 -31.68 
L 280.338813 -31.68 
L 281.409787 -31.68 
L 282.48076 -31.68 
L 283.551734 -31.68 
L 284.622708 -31.68 
L 285.693681 -31.68 
L 286.764655 -31.68 
L 287.835629 -31.68 
L 288.906602 -31.68 
L 289.977576 -31.68 
L 291.04855 -31.68 
L 292.119523 -31.68 
L 293.190497 -31.68 
L 294.261471 -31.68 
L 295.332444 -31.68 
L 296.403418 -31.68 
L 297.474392 -31.68 
L 298.545365 -31.68 
L 299.616339 -31.68 
L 300.687313 -31.68 
L 301.758286 -31.68 
L 302.82926 -31.68 
L 303.900234 -31.68 
L 304.971207 -31.68 
L 306.042181 -31.68 
L 307.113155 -31.68 
L 308.184128 -31.68 
L 309.255102 -31.68 
L 310.326076 -31.68 
L 311.397049 -31.68 
L 312.468023 -31.68 
L 313.538997 -31.68 
L 314.60997 -31.68 
L 315.680944 -31.68 
L 316.751918 -31.68 
L 317.822891 -31.68 
L 318.893865 -31.68 
L 319.964839 -31.68 
L 321.035812 -31.68 
L 322.106786 -31.68 
L 323.17776 -31.68 
L 324.248733 -31.68 
L 325.319707 -31.68 
L 326.390681 -31.68 
L 327.461654 -31.68 
L 328.532628 -31.68 
L 329.603602 -31.68 
L 330.674575 -31.68 
L 331.745549 -31.68 
L 332.816523 -31.68 
L 333.887496 -31.68 
L 334.95847 -31.68 
L 334.95847 -31.681143 
L 334.95847 -31.681143 
L 333.887496 -31.682146 
L 332.816523 -31.683855 
L 331.745549 -31.686628 
L 330.674575 -31.690918 
L 329.603602 -31.697239 
L 328.532628 -31.706118 
L 327.461654 -31.71801 
L 326.390681 -31.733204 
L 325.319707 -31.751734 
L 324.248733 -31.773314 
L 323.17776 -31.797321 
L 322.106786 -31.822822 
L 321.035812 -31.848647 
L 319.964839 -31.873483 
L 318.893865 -31.895981 
L 317.822891 -31.914868 
L 316.751918 -31.929073 
L 315.680944 -31.937841 
L 314.60997 -31.940857 
L 313.538997 -31.938311 
L 312.468023 -31.930889 
L 311.397049 -31.919667 
L 310.326076 -31.905904 
L 309.255102 -31.890803 
L 308.184128 -31.875304 
L 307.113155 -31.86 
L 306.042181 -31.845194 
L 304.971207 -31.831085 
L 303.900234 -31.818003 
L 302.82926 -31.806605 
L 301.758286 -31.797941 
L 300.687313 -31.793374 
L 299.616339 -31.794358 
L 298.545365 -31.802157 
L 297.474392 -31.817595 
L 296.403418 -31.840888 
L 295.332444 -31.87162 
L 294.261471 -31.908823 
L 293.190497 -31.95113 
L 292.119523 -31.996921 
L 291.04855 -32.044418 
L 289.977576 -32.09172 
L 288.906602 -32.136831 
L 287.835629 -32.17775 
L 286.764655 -32.2127 
L 285.693681 -32.240494 
L 284.622708 -32.26098 
L 283.551734 -32.275384 
L 282.48076 -32.286398 
L 281.409787 -32.297886 
L 280.338813 -32.314213 
L 279.267839 -32.339396 
L 278.196866 -32.376422 
L 277.125892 -32.427115 
L 276.054918 -32.492902 
L 274.983945 -32.576565 
L 273.912971 -32.684731 
L 272.841997 -32.830449 
L 271.771024 -33.034876 
L 270.70005 -33.326963 
L 269.629076 -33.740224 
L 268.558103 -34.306272 
L 267.487129 -35.045762 
L 266.416155 -35.958538 
L 265.345182 -37.015724 
L 264.274208 -38.156828 
L 263.203234 -39.294197 
L 262.132261 -40.325368 
L 261.061287 -41.15136 
L 259.990313 -41.696656 
L 258.91934 -41.925448 
L 257.848366 -41.849353 
L 256.777393 -41.524182 
L 255.706419 -41.036636 
L 254.635445 -40.484837 
L 253.564472 -39.95821 
L 252.493498 -39.521969 
L 251.422524 -39.209565 
L 250.351551 -39.023778 
L 249.280577 -38.944691 
L 248.209603 -38.941231 
L 247.13863 -38.982648 
L 246.067656 -39.047044 
L 244.996682 -39.125411 
L 243.925709 -39.221147 
L 242.854735 -39.346272 
L 241.783761 -39.516278 
L 240.712788 -39.745666 
L 239.641814 -40.045786 
L 238.57084 -40.425685 
L 237.499867 -40.895614 
L 236.428893 -41.471646 
L 235.357919 -42.1791 
L 234.286946 -43.052158 
L 233.215972 -44.127781 
L 232.144998 -45.433693 
L 231.074025 -46.9726 
L 230.003051 -48.707201 
L 228.932077 -50.551837 
L 227.861104 -52.37593 
L 226.79013 -54.021358 
L 225.719156 -55.331447 
L 224.648183 -56.184771 
L 223.577209 -56.524449 
L 222.506235 -56.374272 
L 221.435262 -55.836715 
L 220.364288 -55.073332 
L 219.293314 -54.273073 
L 218.222341 -53.616923 
L 217.151367 -53.247184 
L 216.080393 -53.247303 
L 215.00942 -53.634648 
L 213.938446 -54.365526 
L 212.867472 -55.349724 
L 211.796499 -56.471006 
L 210.725525 -57.609879 
L 209.654551 -58.665107 
L 208.583578 -59.570757 
L 207.512604 -60.306163 
L 206.44163 -60.897272 
L 205.370657 -61.40943 
L 204.299683 -61.933431 
L 203.228709 -62.568024 
L 202.157736 -63.402694 
L 201.086762 -64.504158 
L 200.015788 -65.908897 
L 198.944815 -67.622492 
L 197.873841 -69.624992 
L 196.802867 -71.880273 
L 195.731894 -74.346373 
L 194.66092 -76.983504 
L 193.589946 -79.756769 
L 192.518973 -82.632146 
L 191.447999 -85.56667 
L 190.377025 -88.496569 
L 189.306052 -91.329129 
L 188.235078 -93.944043 
L 187.164104 -96.207466 
L 186.093131 -97.997365 
L 185.022157 -99.233883 
L 183.951183 -99.905478 
L 182.88021 -100.081874 
L 181.809236 -99.90864 
L 180.738262 -99.583761 
L 179.667289 -99.321921 
L 178.596315 -99.315411 
L 177.525341 -99.700909 
L 176.454368 -100.539259 
L 175.383394 -101.811842 
L 174.31242 -103.433285 
L 173.241447 -105.27692 
L 172.170473 -107.207005 
L 171.099499 -109.110691 
L 170.028526 -110.923085 
L 168.957552 -112.640598 
L 167.886578 -114.320586 
L 166.815605 -116.068458 
L 165.744631 -118.016121 
L 164.673657 -120.297292 
L 163.602684 -123.025617 
L 162.53171 -126.280611 
L 161.460736 -130.104513 
L 160.389763 -134.510447 
L 159.318789 -139.499152 
L 158.247815 -145.078512 
L 157.176842 -151.278098 
L 156.105868 -158.150787 
L 155.034894 -165.756363 
L 153.963921 -174.127672 
L 152.892947 -183.227178 
L 151.821973 -192.907535 
L 150.751 -202.890912 
L 149.680026 -212.776209 
L 148.609052 -222.072652 
L 147.538079 -230.247237 
L 146.467105 -236.768519 
L 145.396131 -241.133864 
L 144.325158 -242.88 
L 143.254184 -241.590349 
L 142.18321 -236.918583 
L 141.112237 -228.640973 
L 140.041263 -216.732712 
L 138.970289 -201.444365 
L 137.899316 -183.344691 
L 136.828342 -163.301759 
L 135.757368 -142.393895 
L 134.686395 -121.766937 
L 133.615421 -102.473331 
L 132.544447 -85.334068 
L 131.473474 -70.855105 
L 130.4025 -59.211084 
L 129.331526 -50.289043 
L 128.260553 -43.770718 
L 127.189579 -39.227294 
L 126.118605 -36.204374 
L 125.047632 -34.283725 
L 123.976658 -33.118003 
L 122.905684 -32.441945 
L 121.834711 -32.067229 
z
" id="mac4216b9e4" style="stroke:#ff6962;"/>
    </defs>
    <g clip-path="url(#p2eb1bbd3a1)">
     <use style="fill:#ff6962;fill-opacity:0.25;stroke:#ff6962;" x="0" xlink:href="#mac4216b9e4" y="288"/>
    </g>
   </g>
   <g id="patch_3">
    <path d="M 108 256.32 
L 108 34.56 
" style="fill:none;stroke:#cccccc;stroke-linecap:square;stroke-linejoin:miter;stroke-width:0.8;"/>
   </g>
   <g id="patch_4">
    <path d="M 412.363636 256.32 
L 412.363636 34.56 
" style="fill:none;stroke:#cccccc;stroke-linecap:square;stroke-linejoin:miter;stroke-width:0.8;"/>
   </g>
   <g id="patch_5">
    <path d="M 108 256.32 
L 412.363636 256.32 
" style="fill:none;stroke:#cccccc;stroke-linecap:square;stroke-linejoin:miter;stroke-width:0.8;"/>
   </g>
   <g id="patch_6">
    <path d="M 108 34.56 
L 412.363636 34.56 
" style="fill:none;stroke:#cccccc;stroke-linecap:square;stroke-linejoin:miter;stroke-width:0.8;"/>
   </g>
   <g id="legend_1">
    <g id="patch_7">
     <path d="M 326.119886 70.850625 
L 405.363636 70.850625 
Q 407.363636 70.850625 407.363636 68.850625 
L 407.363636 41.56 
Q 407.363636 39.56 405.363636 39.56 
L 326.119886 39.56 
Q 324.119886 39.56 324.119886 41.56 
L 324.119886 68.850625 
Q 324.119886 70.850625 326.119886 70.850625 
z
" style="fill:#ffffff;opacity:0.8;stroke:#cccccc;stroke-linejoin:miter;"/>
    </g>
    <g id="patch_8">
     <path d="M 328.119886 50.717813 
L 348.119886 50.717813 
L 348.119886 43.717813 
L 328.119886 43.717813 
z
" style="fill:#77dd76;fill-opacity:0.25;stroke:#77dd76;stroke-linejoin:miter;"/>
    </g>
    <g id="text_16">
     <!-- No Default -->
     <g style="fill:#262626;" transform="translate(356.119886 50.717813)scale(0.1 -0.1)">
      <defs>
       <path d="M 7.625 0 
L 7.625 71.578125 
L 17.328125 71.578125 
L 54.9375 15.375 
L 54.9375 71.578125 
L 64.015625 71.578125 
L 64.015625 0 
L 54.296875 0 
L 16.703125 56.25 
L 16.703125 0 
z
" id="ArialMT-78"/>
       <path d="M 3.328125 25.921875 
Q 3.328125 40.328125 11.328125 47.265625 
Q 18.015625 53.03125 27.640625 53.03125 
Q 38.328125 53.03125 45.109375 46.015625 
Q 51.90625 39.015625 51.90625 26.65625 
Q 51.90625 16.65625 48.90625 10.90625 
Q 45.90625 5.171875 40.15625 2 
Q 34.421875 -1.171875 27.640625 -1.171875 
Q 16.75 -1.171875 10.03125 5.8125 
Q 3.328125 12.796875 3.328125 25.921875 
z
M 12.359375 25.921875 
Q 12.359375 15.96875 16.703125 11.015625 
Q 21.046875 6.0625 27.640625 6.0625 
Q 34.1875 6.0625 38.53125 11.03125 
Q 42.875 16.015625 42.875 26.21875 
Q 42.875 35.84375 38.5 40.796875 
Q 34.125 45.75 27.640625 45.75 
Q 21.046875 45.75 16.703125 40.8125 
Q 12.359375 35.890625 12.359375 25.921875 
z
" id="ArialMT-111"/>
       <path id="ArialMT-32"/>
       <path d="M 7.71875 0 
L 7.71875 71.578125 
L 32.375 71.578125 
Q 40.71875 71.578125 45.125 70.5625 
Q 51.265625 69.140625 55.609375 65.4375 
Q 61.28125 60.640625 64.078125 53.1875 
Q 66.890625 45.75 66.890625 36.1875 
Q 66.890625 28.03125 64.984375 21.734375 
Q 63.09375 15.4375 60.109375 11.296875 
Q 57.125 7.171875 53.578125 4.796875 
Q 50.046875 2.4375 45.046875 1.21875 
Q 40.046875 0 33.546875 0 
z
M 17.1875 8.453125 
L 32.46875 8.453125 
Q 39.546875 8.453125 43.578125 9.765625 
Q 47.609375 11.078125 50 13.484375 
Q 53.375 16.84375 55.25 22.53125 
Q 57.125 28.21875 57.125 36.328125 
Q 57.125 47.5625 53.4375 53.59375 
Q 49.75 59.625 44.484375 61.671875 
Q 40.671875 63.140625 32.234375 63.140625 
L 17.1875 63.140625 
z
" id="ArialMT-68"/>
       <path d="M 8.6875 0 
L 8.6875 45.015625 
L 0.921875 45.015625 
L 0.921875 51.859375 
L 8.6875 51.859375 
L 8.6875 57.375 
Q 8.6875 62.59375 9.625 65.140625 
Q 10.890625 68.5625 14.078125 70.671875 
Q 17.28125 72.796875 23.046875 72.796875 
Q 26.765625 72.796875 31.25 71.921875 
L 29.9375 64.265625 
Q 27.203125 64.75 24.75 64.75 
Q 20.75 64.75 19.09375 63.03125 
Q 17.4375 61.328125 17.4375 56.640625 
L 17.4375 51.859375 
L 27.546875 51.859375 
L 27.546875 45.015625 
L 17.4375 45.015625 
L 17.4375 0 
z
" id="ArialMT-102"/>
       <path d="M 40.4375 6.390625 
Q 35.546875 2.25 31.03125 0.53125 
Q 26.515625 -1.171875 21.34375 -1.171875 
Q 12.796875 -1.171875 8.203125 3 
Q 3.609375 7.171875 3.609375 13.671875 
Q 3.609375 17.484375 5.34375 20.625 
Q 7.078125 23.78125 9.890625 25.6875 
Q 12.703125 27.59375 16.21875 28.5625 
Q 18.796875 29.25 24.03125 29.890625 
Q 34.671875 31.15625 39.703125 32.90625 
Q 39.75 34.71875 39.75 35.203125 
Q 39.75 40.578125 37.25 42.78125 
Q 33.890625 45.75 27.25 45.75 
Q 21.046875 45.75 18.09375 43.578125 
Q 15.140625 41.40625 13.71875 35.890625 
L 5.125 37.0625 
Q 6.296875 42.578125 8.984375 45.96875 
Q 11.671875 49.359375 16.75 51.1875 
Q 21.828125 53.03125 28.515625 53.03125 
Q 35.15625 53.03125 39.296875 51.46875 
Q 43.453125 49.90625 45.40625 47.53125 
Q 47.359375 45.171875 48.140625 41.546875 
Q 48.578125 39.3125 48.578125 33.453125 
L 48.578125 21.734375 
Q 48.578125 9.46875 49.140625 6.21875 
Q 49.703125 2.984375 51.375 0 
L 42.1875 0 
Q 40.828125 2.734375 40.4375 6.390625 
z
M 39.703125 26.03125 
Q 34.90625 24.078125 25.34375 22.703125 
Q 19.921875 21.921875 17.671875 20.9375 
Q 15.4375 19.96875 14.203125 18.09375 
Q 12.984375 16.21875 12.984375 13.921875 
Q 12.984375 10.40625 15.640625 8.0625 
Q 18.3125 5.71875 23.4375 5.71875 
Q 28.515625 5.71875 32.46875 7.9375 
Q 36.421875 10.15625 38.28125 14.015625 
Q 39.703125 17 39.703125 22.796875 
z
" id="ArialMT-97"/>
       <path d="M 40.578125 0 
L 40.578125 7.625 
Q 34.515625 -1.171875 24.125 -1.171875 
Q 19.53125 -1.171875 15.546875 0.578125 
Q 11.578125 2.34375 9.640625 5 
Q 7.71875 7.671875 6.9375 11.53125 
Q 6.390625 14.109375 6.390625 19.734375 
L 6.390625 51.859375 
L 15.1875 51.859375 
L 15.1875 23.09375 
Q 15.1875 16.21875 15.71875 13.8125 
Q 16.546875 10.359375 19.234375 8.375 
Q 21.921875 6.390625 25.875 6.390625 
Q 29.828125 6.390625 33.296875 8.421875 
Q 36.765625 10.453125 38.203125 13.9375 
Q 39.65625 17.4375 39.65625 24.078125 
L 39.65625 51.859375 
L 48.4375 51.859375 
L 48.4375 0 
z
" id="ArialMT-117"/>
       <path d="M 6.390625 0 
L 6.390625 71.578125 
L 15.1875 71.578125 
L 15.1875 0 
z
" id="ArialMT-108"/>
       <path d="M 25.78125 7.859375 
L 27.046875 0.09375 
Q 23.34375 -0.6875 20.40625 -0.6875 
Q 15.625 -0.6875 12.984375 0.828125 
Q 10.359375 2.34375 9.28125 4.8125 
Q 8.203125 7.28125 8.203125 15.1875 
L 8.203125 45.015625 
L 1.765625 45.015625 
L 1.765625 51.859375 
L 8.203125 51.859375 
L 8.203125 64.703125 
L 16.9375 69.96875 
L 16.9375 51.859375 
L 25.78125 51.859375 
L 25.78125 45.015625 
L 16.9375 45.015625 
L 16.9375 14.703125 
Q 16.9375 10.9375 17.40625 9.859375 
Q 17.875 8.796875 18.921875 8.15625 
Q 19.96875 7.515625 21.921875 7.515625 
Q 23.390625 7.515625 25.78125 7.859375 
z
" id="ArialMT-116"/>
      </defs>
      <use xlink:href="#ArialMT-78"/>
      <use x="72.216797" xlink:href="#ArialMT-111"/>
      <use x="127.832031" xlink:href="#ArialMT-32"/>
      <use x="155.615234" xlink:href="#ArialMT-68"/>
      <use x="227.832031" xlink:href="#ArialMT-101"/>
      <use x="283.447266" xlink:href="#ArialMT-102"/>
      <use x="311.230469" xlink:href="#ArialMT-97"/>
      <use x="366.845703" xlink:href="#ArialMT-117"/>
      <use x="422.460938" xlink:href="#ArialMT-108"/>
      <use x="444.677734" xlink:href="#ArialMT-116"/>
     </g>
    </g>
    <g id="patch_9">
     <path d="M 328.119886 64.863125 
L 348.119886 64.863125 
L 348.119886 57.863125 
L 328.119886 57.863125 
z
" style="fill:#ff6962;fill-opacity:0.25;stroke:#ff6962;stroke-linejoin:miter;"/>
    </g>
    <g id="text_17">
     <!-- Default -->
     <g style="fill:#262626;" transform="translate(356.119886 64.863125)scale(0.1 -0.1)">
      <use xlink:href="#ArialMT-68"/>
      <use x="72.216797" xlink:href="#ArialMT-101"/>
      <use x="127.832031" xlink:href="#ArialMT-102"/>
      <use x="155.615234" xlink:href="#ArialMT-97"/>
      <use x="211.230469" xlink:href="#ArialMT-117"/>
      <use x="266.845703" xlink:href="#ArialMT-108"/>
      <use x="289.0625" xlink:href="#ArialMT-116"/>
     </g>
    </g>
   </g>
  </g>
  <g id="axes_2">
   <g id="patch_10">
    <path d="M 473.236364 256.32 
L 777.6 256.32 
L 777.6 34.56 
L 473.236364 34.56 
z
" style="fill:#ffffff;"/>
   </g>
   <g id="matplotlib.axis_3">
    <g id="xtick_7">
     <g id="line2d_14">
      <path clip-path="url(#pa58d126b1b)" d="M 503.689945 256.32 
L 503.689945 34.56 
" style="fill:none;stroke:#cccccc;stroke-linecap:round;stroke-width:0.8;"/>
     </g>
     <g id="text_18">
      <!-- 20 -->
      <g style="fill:#262626;" transform="translate(498.129008 270.477813)scale(0.1 -0.1)">
       <use xlink:href="#ArialMT-50"/>
       <use x="55.615234" xlink:href="#ArialMT-48"/>
      </g>
     </g>
    </g>
    <g id="xtick_8">
     <g id="line2d_15">
      <path clip-path="url(#pa58d126b1b)" d="M 545.207499 256.32 
L 545.207499 34.56 
" style="fill:none;stroke:#cccccc;stroke-linecap:round;stroke-width:0.8;"/>
     </g>
     <g id="text_19">
      <!-- 30 -->
      <g style="fill:#262626;" transform="translate(539.646561 270.477813)scale(0.1 -0.1)">
       <use xlink:href="#ArialMT-51"/>
       <use x="55.615234" xlink:href="#ArialMT-48"/>
      </g>
     </g>
    </g>
    <g id="xtick_9">
     <g id="line2d_16">
      <path clip-path="url(#pa58d126b1b)" d="M 586.725052 256.32 
L 586.725052 34.56 
" style="fill:none;stroke:#cccccc;stroke-linecap:round;stroke-width:0.8;"/>
     </g>
     <g id="text_20">
      <!-- 40 -->
      <g style="fill:#262626;" transform="translate(581.164115 270.477813)scale(0.1 -0.1)">
       <use xlink:href="#ArialMT-52"/>
       <use x="55.615234" xlink:href="#ArialMT-48"/>
      </g>
     </g>
    </g>
    <g id="xtick_10">
     <g id="line2d_17">
      <path clip-path="url(#pa58d126b1b)" d="M 628.242606 256.32 
L 628.242606 34.56 
" style="fill:none;stroke:#cccccc;stroke-linecap:round;stroke-width:0.8;"/>
     </g>
     <g id="text_21">
      <!-- 50 -->
      <g style="fill:#262626;" transform="translate(622.681668 270.477813)scale(0.1 -0.1)">
       <use xlink:href="#ArialMT-53"/>
       <use x="55.615234" xlink:href="#ArialMT-48"/>
      </g>
     </g>
    </g>
    <g id="xtick_11">
     <g id="line2d_18">
      <path clip-path="url(#pa58d126b1b)" d="M 669.760159 256.32 
L 669.760159 34.56 
" style="fill:none;stroke:#cccccc;stroke-linecap:round;stroke-width:0.8;"/>
     </g>
     <g id="text_22">
      <!-- 60 -->
      <g style="fill:#262626;" transform="translate(664.199222 270.477813)scale(0.1 -0.1)">
       <use xlink:href="#ArialMT-54"/>
       <use x="55.615234" xlink:href="#ArialMT-48"/>
      </g>
     </g>
    </g>
    <g id="xtick_12">
     <g id="line2d_19">
      <path clip-path="url(#pa58d126b1b)" d="M 711.277713 256.32 
L 711.277713 34.56 
" style="fill:none;stroke:#cccccc;stroke-linecap:round;stroke-width:0.8;"/>
     </g>
     <g id="text_23">
      <!-- 70 -->
      <g style="fill:#262626;" transform="translate(705.716775 270.477813)scale(0.1 -0.1)">
       <defs>
        <path d="M 4.734375 62.203125 
L 4.734375 70.65625 
L 51.078125 70.65625 
L 51.078125 63.8125 
Q 44.234375 56.546875 37.515625 44.484375 
Q 30.8125 32.421875 27.15625 19.671875 
Q 24.515625 10.6875 23.78125 0 
L 14.75 0 
Q 14.890625 8.453125 18.0625 20.40625 
Q 21.234375 32.375 27.171875 43.484375 
Q 33.109375 54.59375 39.796875 62.203125 
z
" id="ArialMT-55"/>
       </defs>
       <use xlink:href="#ArialMT-55"/>
       <use x="55.615234" xlink:href="#ArialMT-48"/>
      </g>
     </g>
    </g>
    <g id="xtick_13">
     <g id="line2d_20">
      <path clip-path="url(#pa58d126b1b)" d="M 752.795266 256.32 
L 752.795266 34.56 
" style="fill:none;stroke:#cccccc;stroke-linecap:round;stroke-width:0.8;"/>
     </g>
     <g id="text_24">
      <!-- 80 -->
      <g style="fill:#262626;" transform="translate(747.234329 270.477813)scale(0.1 -0.1)">
       <use xlink:href="#ArialMT-56"/>
       <use x="55.615234" xlink:href="#ArialMT-48"/>
      </g>
     </g>
    </g>
    <g id="text_25">
     <!-- AGE -->
     <g style="fill:#262626;" transform="translate(609.579119 287.202031)scale(0.15 -0.15)">
      <defs>
       <path d="M 41.21875 28.078125 
L 41.21875 36.46875 
L 71.53125 36.53125 
L 71.53125 9.96875 
Q 64.546875 4.390625 57.125 1.578125 
Q 49.703125 -1.21875 41.890625 -1.21875 
Q 31.34375 -1.21875 22.71875 3.296875 
Q 14.109375 7.8125 9.71875 16.359375 
Q 5.328125 24.90625 5.328125 35.453125 
Q 5.328125 45.90625 9.6875 54.953125 
Q 14.0625 64.015625 22.265625 68.40625 
Q 30.46875 72.796875 41.15625 72.796875 
Q 48.921875 72.796875 55.1875 70.28125 
Q 61.46875 67.78125 65.03125 63.28125 
Q 68.609375 58.796875 70.453125 51.5625 
L 61.921875 49.21875 
Q 60.296875 54.6875 57.90625 57.8125 
Q 55.515625 60.9375 51.0625 62.8125 
Q 46.625 64.703125 41.21875 64.703125 
Q 34.71875 64.703125 29.984375 62.71875 
Q 25.25 60.75 22.34375 57.515625 
Q 19.4375 54.296875 17.828125 50.4375 
Q 15.09375 43.796875 15.09375 36.03125 
Q 15.09375 26.46875 18.390625 20.015625 
Q 21.6875 13.578125 27.984375 10.453125 
Q 34.28125 7.328125 41.359375 7.328125 
Q 47.515625 7.328125 53.375 9.6875 
Q 59.234375 12.0625 62.25 14.75 
L 62.25 28.078125 
z
" id="ArialMT-71"/>
       <path d="M 7.90625 0 
L 7.90625 71.578125 
L 59.671875 71.578125 
L 59.671875 63.140625 
L 17.390625 63.140625 
L 17.390625 41.21875 
L 56.984375 41.21875 
L 56.984375 32.8125 
L 17.390625 32.8125 
L 17.390625 8.453125 
L 61.328125 8.453125 
L 61.328125 0 
z
" id="ArialMT-69"/>
      </defs>
      <use xlink:href="#ArialMT-65"/>
      <use x="66.699219" xlink:href="#ArialMT-71"/>
      <use x="144.482422" xlink:href="#ArialMT-69"/>
     </g>
    </g>
   </g>
   <g id="matplotlib.axis_4">
    <g id="ytick_8">
     <g id="line2d_21">
      <path clip-path="url(#pa58d126b1b)" d="M 473.236364 256.32 
L 777.6 256.32 
" style="fill:none;stroke:#cccccc;stroke-linecap:round;stroke-width:0.8;"/>
     </g>
     <g id="text_26">
      <!-- 0.00 -->
      <g style="fill:#262626;" transform="translate(446.775426 259.898906)scale(0.1 -0.1)">
       <defs>
        <path d="M 9.078125 0 
L 9.078125 10.015625 
L 19.09375 10.015625 
L 19.09375 0 
z
" id="ArialMT-46"/>
       </defs>
       <use xlink:href="#ArialMT-48"/>
       <use x="55.615234" xlink:href="#ArialMT-46"/>
       <use x="83.398438" xlink:href="#ArialMT-48"/>
       <use x="139.013672" xlink:href="#ArialMT-48"/>
      </g>
     </g>
    </g>
    <g id="ytick_9">
     <g id="line2d_22">
      <path clip-path="url(#pa58d126b1b)" d="M 473.236364 214.060754 
L 777.6 214.060754 
" style="fill:none;stroke:#cccccc;stroke-linecap:round;stroke-width:0.8;"/>
     </g>
     <g id="text_27">
      <!-- 0.01 -->
      <g style="fill:#262626;" transform="translate(446.775426 217.639661)scale(0.1 -0.1)">
       <use xlink:href="#ArialMT-48"/>
       <use x="55.615234" xlink:href="#ArialMT-46"/>
       <use x="83.398438" xlink:href="#ArialMT-48"/>
       <use x="139.013672" xlink:href="#ArialMT-49"/>
      </g>
     </g>
    </g>
    <g id="ytick_10">
     <g id="line2d_23">
      <path clip-path="url(#pa58d126b1b)" d="M 473.236364 171.801509 
L 777.6 171.801509 
" style="fill:none;stroke:#cccccc;stroke-linecap:round;stroke-width:0.8;"/>
     </g>
     <g id="text_28">
      <!-- 0.02 -->
      <g style="fill:#262626;" transform="translate(446.775426 175.380415)scale(0.1 -0.1)">
       <use xlink:href="#ArialMT-48"/>
       <use x="55.615234" xlink:href="#ArialMT-46"/>
       <use x="83.398438" xlink:href="#ArialMT-48"/>
       <use x="139.013672" xlink:href="#ArialMT-50"/>
      </g>
     </g>
    </g>
    <g id="ytick_11">
     <g id="line2d_24">
      <path clip-path="url(#pa58d126b1b)" d="M 473.236364 129.542263 
L 777.6 129.542263 
" style="fill:none;stroke:#cccccc;stroke-linecap:round;stroke-width:0.8;"/>
     </g>
     <g id="text_29">
      <!-- 0.03 -->
      <g style="fill:#262626;" transform="translate(446.775426 133.12117)scale(0.1 -0.1)">
       <use xlink:href="#ArialMT-48"/>
       <use x="55.615234" xlink:href="#ArialMT-46"/>
       <use x="83.398438" xlink:href="#ArialMT-48"/>
       <use x="139.013672" xlink:href="#ArialMT-51"/>
      </g>
     </g>
    </g>
    <g id="ytick_12">
     <g id="line2d_25">
      <path clip-path="url(#pa58d126b1b)" d="M 473.236364 87.283018 
L 777.6 87.283018 
" style="fill:none;stroke:#cccccc;stroke-linecap:round;stroke-width:0.8;"/>
     </g>
     <g id="text_30">
      <!-- 0.04 -->
      <g style="fill:#262626;" transform="translate(446.775426 90.861924)scale(0.1 -0.1)">
       <use xlink:href="#ArialMT-48"/>
       <use x="55.615234" xlink:href="#ArialMT-46"/>
       <use x="83.398438" xlink:href="#ArialMT-48"/>
       <use x="139.013672" xlink:href="#ArialMT-52"/>
      </g>
     </g>
    </g>
    <g id="ytick_13">
     <g id="line2d_26">
      <path clip-path="url(#pa58d126b1b)" d="M 473.236364 45.023772 
L 777.6 45.023772 
" style="fill:none;stroke:#cccccc;stroke-linecap:round;stroke-width:0.8;"/>
     </g>
     <g id="text_31">
      <!-- 0.05 -->
      <g style="fill:#262626;" transform="translate(446.775426 48.602679)scale(0.1 -0.1)">
       <use xlink:href="#ArialMT-48"/>
       <use x="55.615234" xlink:href="#ArialMT-46"/>
       <use x="83.398438" xlink:href="#ArialMT-48"/>
       <use x="139.013672" xlink:href="#ArialMT-53"/>
      </g>
     </g>
    </g>
   </g>
   <g id="PolyCollection_3">
    <defs>
     <path d="M 492.719922 -31.731379 
L 492.719922 -31.68 
L 494.081959 -31.68 
L 495.443996 -31.68 
L 496.806033 -31.68 
L 498.16807 -31.68 
L 499.530107 -31.68 
L 500.892144 -31.68 
L 502.254181 -31.68 
L 503.616218 -31.68 
L 504.978255 -31.68 
L 506.340292 -31.68 
L 507.702329 -31.68 
L 509.064366 -31.68 
L 510.426403 -31.68 
L 511.78844 -31.68 
L 513.150477 -31.68 
L 514.512514 -31.68 
L 515.874551 -31.68 
L 517.236588 -31.68 
L 518.598625 -31.68 
L 519.960663 -31.68 
L 521.3227 -31.68 
L 522.684737 -31.68 
L 524.046774 -31.68 
L 525.408811 -31.68 
L 526.770848 -31.68 
L 528.132885 -31.68 
L 529.494922 -31.68 
L 530.856959 -31.68 
L 532.218996 -31.68 
L 533.581033 -31.68 
L 534.94307 -31.68 
L 536.305107 -31.68 
L 537.667144 -31.68 
L 539.029181 -31.68 
L 540.391218 -31.68 
L 541.753255 -31.68 
L 543.115292 -31.68 
L 544.477329 -31.68 
L 545.839366 -31.68 
L 547.201403 -31.68 
L 548.56344 -31.68 
L 549.925477 -31.68 
L 551.287514 -31.68 
L 552.649551 -31.68 
L 554.011588 -31.68 
L 555.373625 -31.68 
L 556.735662 -31.68 
L 558.097699 -31.68 
L 559.459736 -31.68 
L 560.821773 -31.68 
L 562.18381 -31.68 
L 563.545847 -31.68 
L 564.907884 -31.68 
L 566.269921 -31.68 
L 567.631958 -31.68 
L 568.993995 -31.68 
L 570.356032 -31.68 
L 571.718069 -31.68 
L 573.080106 -31.68 
L 574.442143 -31.68 
L 575.80418 -31.68 
L 577.166217 -31.68 
L 578.528254 -31.68 
L 579.890291 -31.68 
L 581.252328 -31.68 
L 582.614365 -31.68 
L 583.976402 -31.68 
L 585.33844 -31.68 
L 586.700477 -31.68 
L 588.062514 -31.68 
L 589.424551 -31.68 
L 590.786588 -31.68 
L 592.148625 -31.68 
L 593.510662 -31.68 
L 594.872699 -31.68 
L 596.234736 -31.68 
L 597.596773 -31.68 
L 598.95881 -31.68 
L 600.320847 -31.68 
L 601.682884 -31.68 
L 603.044921 -31.68 
L 604.406958 -31.68 
L 605.768995 -31.68 
L 607.131032 -31.68 
L 608.493069 -31.68 
L 609.855106 -31.68 
L 611.217143 -31.68 
L 612.57918 -31.68 
L 613.941217 -31.68 
L 615.303254 -31.68 
L 616.665291 -31.68 
L 618.027328 -31.68 
L 619.389365 -31.68 
L 620.751402 -31.68 
L 622.113439 -31.68 
L 623.475476 -31.68 
L 624.837513 -31.68 
L 626.19955 -31.68 
L 627.561587 -31.68 
L 628.923624 -31.68 
L 630.285661 -31.68 
L 631.647698 -31.68 
L 633.009735 -31.68 
L 634.371772 -31.68 
L 635.733809 -31.68 
L 637.095846 -31.68 
L 638.457883 -31.68 
L 639.81992 -31.68 
L 641.181957 -31.68 
L 642.543994 -31.68 
L 643.906031 -31.68 
L 645.268068 -31.68 
L 646.630105 -31.68 
L 647.992142 -31.68 
L 649.354179 -31.68 
L 650.716217 -31.68 
L 652.078254 -31.68 
L 653.440291 -31.68 
L 654.802328 -31.68 
L 656.164365 -31.68 
L 657.526402 -31.68 
L 658.888439 -31.68 
L 660.250476 -31.68 
L 661.612513 -31.68 
L 662.97455 -31.68 
L 664.336587 -31.68 
L 665.698624 -31.68 
L 667.060661 -31.68 
L 668.422698 -31.68 
L 669.784735 -31.68 
L 671.146772 -31.68 
L 672.508809 -31.68 
L 673.870846 -31.68 
L 675.232883 -31.68 
L 676.59492 -31.68 
L 677.956957 -31.68 
L 679.318994 -31.68 
L 680.681031 -31.68 
L 682.043068 -31.68 
L 683.405105 -31.68 
L 684.767142 -31.68 
L 686.129179 -31.68 
L 687.491216 -31.68 
L 688.853253 -31.68 
L 690.21529 -31.68 
L 691.577327 -31.68 
L 692.939364 -31.68 
L 694.301401 -31.68 
L 695.663438 -31.68 
L 697.025475 -31.68 
L 698.387512 -31.68 
L 699.749549 -31.68 
L 701.111586 -31.68 
L 702.473623 -31.68 
L 703.83566 -31.68 
L 705.197697 -31.68 
L 706.559734 -31.68 
L 707.921771 -31.68 
L 709.283808 -31.68 
L 710.645845 -31.68 
L 712.007882 -31.68 
L 713.369919 -31.68 
L 714.731957 -31.68 
L 716.093994 -31.68 
L 717.456031 -31.68 
L 718.818068 -31.68 
L 720.180105 -31.68 
L 721.542142 -31.68 
L 722.904179 -31.68 
L 724.266216 -31.68 
L 725.628253 -31.68 
L 726.99029 -31.68 
L 728.352327 -31.68 
L 729.714364 -31.68 
L 731.076401 -31.68 
L 732.438438 -31.68 
L 733.800475 -31.68 
L 735.162512 -31.68 
L 736.524549 -31.68 
L 737.886586 -31.68 
L 739.248623 -31.68 
L 740.61066 -31.68 
L 741.972697 -31.68 
L 743.334734 -31.68 
L 744.696771 -31.68 
L 746.058808 -31.68 
L 747.420845 -31.68 
L 748.782882 -31.68 
L 750.144919 -31.68 
L 751.506956 -31.68 
L 752.868993 -31.68 
L 754.23103 -31.68 
L 755.593067 -31.68 
L 756.955104 -31.68 
L 758.317141 -31.68 
L 759.679178 -31.68 
L 761.041215 -31.68 
L 762.403252 -31.68 
L 763.765289 -31.68 
L 763.765289 -31.68066 
L 763.765289 -31.68066 
L 762.403252 -31.681432 
L 761.041215 -31.682887 
L 759.679178 -31.68541 
L 758.317141 -31.689425 
L 756.955104 -31.695263 
L 755.593067 -31.702978 
L 754.23103 -31.712159 
L 752.868993 -31.721849 
L 751.506956 -31.730647 
L 750.144919 -31.737046 
L 748.782882 -31.739899 
L 747.420845 -31.738872 
L 746.058808 -31.734686 
L 744.696771 -31.729054 
L 743.334734 -31.724347 
L 741.972697 -31.723078 
L 740.61066 -31.727361 
L 739.248623 -31.738436 
L 737.886586 -31.756335 
L 736.524549 -31.779772 
L 735.162512 -31.80633 
L 733.800475 -31.833002 
L 732.438438 -31.856993 
L 731.076401 -31.87656 
L 729.714364 -31.891587 
L 728.352327 -31.903711 
L 726.99029 -31.915964 
L 725.628253 -31.932149 
L 724.266216 -31.956214 
L 722.904179 -31.99185 
L 721.542142 -32.042322 
L 720.180105 -32.11038 
L 718.818068 -32.197977 
L 717.456031 -32.30564 
L 716.093994 -32.43156 
L 714.731957 -32.570761 
L 713.369919 -32.714909 
L 712.007882 -32.853285 
L 710.645845 -32.97509 
L 709.283808 -33.072671 
L 707.921771 -33.144639 
L 706.559734 -33.197576 
L 705.197697 -33.245286 
L 703.83566 -33.305457 
L 702.473623 -33.394689 
L 701.111586 -33.523676 
L 699.749549 -33.694309 
L 698.387512 -33.89969 
L 697.025475 -34.126829 
L 695.663438 -34.360824 
L 694.301401 -34.588989 
L 692.939364 -34.803701 
L 691.577327 -35.003502 
L 690.21529 -35.192631 
L 688.853253 -35.379532 
L 687.491216 -35.574842 
L 686.129179 -35.789132 
L 684.767142 -36.030593 
L 683.405105 -36.30307 
L 682.043068 -36.605161 
L 680.681031 -36.93116 
L 679.318994 -37.274093 
L 677.956957 -37.630089 
L 676.59492 -38.002435 
L 675.232883 -38.403497 
L 673.870846 -38.853473 
L 672.508809 -39.376204 
L 671.146772 -39.993413 
L 669.784735 -40.719145 
L 668.422698 -41.556008 
L 667.060661 -42.494254 
L 665.698624 -43.514154 
L 664.336587 -44.591349 
L 662.97455 -45.703963 
L 661.612513 -46.839287 
L 660.250476 -47.997633 
L 658.888439 -49.191776 
L 657.526402 -50.442363 
L 656.164365 -51.771553 
L 654.802328 -53.197814 
L 653.440291 -54.733615 
L 652.078254 -56.385445 
L 650.716217 -58.153812 
L 649.354179 -60.03087 
L 647.992142 -61.995378 
L 646.630105 -64.007542 
L 645.268068 -66.008198 
L 643.906031 -67.92621 
L 642.543994 -69.694625 
L 641.181957 -71.271388 
L 639.81992 -72.656683 
L 638.457883 -73.898754 
L 637.095846 -75.084024 
L 635.733809 -76.313888 
L 634.371772 -77.676353 
L 633.009735 -79.22278 
L 631.647698 -80.957493 
L 630.285661 -82.842465 
L 628.923624 -84.813502 
L 627.561587 -86.800867 
L 626.19955 -88.747147 
L 624.837513 -90.617911 
L 623.475476 -92.404592 
L 622.113439 -94.12204 
L 620.751402 -95.804101 
L 619.389365 -97.499265 
L 618.027328 -99.266148 
L 616.665291 -101.16696 
L 615.303254 -103.257247 
L 613.941217 -105.572204 
L 612.57918 -108.112784 
L 611.217143 -110.837025 
L 609.855106 -113.66206 
L 608.493069 -116.479465 
L 607.131032 -119.181634 
L 605.768995 -121.691741 
L 604.406958 -123.986952 
L 603.044921 -126.10566 
L 601.682884 -128.134856 
L 600.320847 -130.181516 
L 598.95881 -132.338759 
L 597.596773 -134.659987 
L 596.234736 -137.150531 
L 594.872699 -139.777953 
L 593.510662 -142.49346 
L 592.148625 -145.252605 
L 590.786588 -148.025666 
L 589.424551 -150.7952 
L 588.062514 -153.545773 
L 586.700477 -156.254767 
L 585.33844 -158.891571 
L 583.976402 -161.426722 
L 582.614365 -163.846047 
L 581.252328 -166.161285 
L 579.890291 -168.410162 
L 578.528254 -170.644604 
L 577.166217 -172.91235 
L 575.80418 -175.240657 
L 574.442143 -177.629139 
L 573.080106 -180.053427 
L 571.718069 -182.475755 
L 570.356032 -184.856015 
L 568.993995 -187.158212 
L 567.631958 -189.351185 
L 566.269921 -191.406307 
L 564.907884 -193.296648 
L 563.545847 -195.001085 
L 562.18381 -196.513949 
L 560.821773 -197.857501 
L 559.459736 -199.092603 
L 558.097699 -200.323011 
L 556.735662 -201.690538 
L 555.373625 -203.360696 
L 554.011588 -205.500227 
L 552.649551 -208.248858 
L 551.287514 -211.688077 
L 549.925477 -215.810801 
L 548.56344 -220.497907 
L 547.201403 -225.510064 
L 545.839366 -230.503824 
L 544.477329 -235.076755 
L 543.115292 -238.836456 
L 541.753255 -241.475702 
L 540.391218 -242.827806 
L 539.029181 -242.88 
L 537.667144 -241.739569 
L 536.305107 -239.569897 
L 534.94307 -236.527955 
L 533.581033 -232.731359 
L 532.218996 -228.263586 
L 530.856959 -223.202952 
L 529.494922 -217.648834 
L 528.132885 -211.723649 
L 526.770848 -205.545821 
L 525.408811 -199.186189 
L 524.046774 -192.628655 
L 522.684737 -185.753312 
L 521.3227 -178.350683 
L 519.960663 -170.164889 
L 518.598625 -160.955678 
L 517.236588 -150.565526 
L 515.874551 -138.977625 
L 514.512514 -126.352168 
L 513.150477 -113.031254 
L 511.78844 -99.507508 
L 510.426403 -86.358646 
L 509.064366 -74.159291 
L 507.702329 -63.389582 
L 506.340292 -54.363354 
L 504.978255 -47.194052 
L 503.616218 -41.804692 
L 502.254181 -37.974096 
L 500.892144 -35.401556 
L 499.530107 -33.770032 
L 498.16807 -32.793355 
L 496.806033 -32.241789 
L 495.443996 -31.948133 
L 494.081959 -31.800868 
L 492.719922 -31.731379 
z
" id="m2d5357aba6" style="stroke:#77dd76;"/>
    </defs>
    <g clip-path="url(#pa58d126b1b)">
     <use style="fill:#77dd76;fill-opacity:0.25;stroke:#77dd76;" x="0" xlink:href="#m2d5357aba6" y="288"/>
    </g>
   </g>
   <g id="PolyCollection_4">
    <defs>
     <path d="M 487.071074 -31.749286 
L 487.071074 -31.68 
L 488.406431 -31.68 
L 489.741788 -31.68 
L 491.077145 -31.68 
L 492.412502 -31.68 
L 493.747859 -31.68 
L 495.083216 -31.68 
L 496.418573 -31.68 
L 497.75393 -31.68 
L 499.089287 -31.68 
L 500.424644 -31.68 
L 501.760001 -31.68 
L 503.095358 -31.68 
L 504.430715 -31.68 
L 505.766072 -31.68 
L 507.101429 -31.68 
L 508.436786 -31.68 
L 509.772143 -31.68 
L 511.1075 -31.68 
L 512.442857 -31.68 
L 513.778214 -31.68 
L 515.113571 -31.68 
L 516.448928 -31.68 
L 517.784285 -31.68 
L 519.119642 -31.68 
L 520.454999 -31.68 
L 521.790356 -31.68 
L 523.125713 -31.68 
L 524.46107 -31.68 
L 525.796427 -31.68 
L 527.131784 -31.68 
L 528.467141 -31.68 
L 529.802498 -31.68 
L 531.137855 -31.68 
L 532.473212 -31.68 
L 533.808569 -31.68 
L 535.143926 -31.68 
L 536.479283 -31.68 
L 537.81464 -31.68 
L 539.149997 -31.68 
L 540.485354 -31.68 
L 541.820711 -31.68 
L 543.156068 -31.68 
L 544.491425 -31.68 
L 545.826782 -31.68 
L 547.162139 -31.68 
L 548.497496 -31.68 
L 549.832853 -31.68 
L 551.16821 -31.68 
L 552.503567 -31.68 
L 553.838924 -31.68 
L 555.174281 -31.68 
L 556.509638 -31.68 
L 557.844995 -31.68 
L 559.180352 -31.68 
L 560.515709 -31.68 
L 561.851066 -31.68 
L 563.186423 -31.68 
L 564.52178 -31.68 
L 565.857137 -31.68 
L 567.192494 -31.68 
L 568.527851 -31.68 
L 569.863208 -31.68 
L 571.198565 -31.68 
L 572.533922 -31.68 
L 573.869279 -31.68 
L 575.204636 -31.68 
L 576.539993 -31.68 
L 577.87535 -31.68 
L 579.210707 -31.68 
L 580.546064 -31.68 
L 581.881421 -31.68 
L 583.216778 -31.68 
L 584.552135 -31.68 
L 585.887492 -31.68 
L 587.222849 -31.68 
L 588.558206 -31.68 
L 589.893563 -31.68 
L 591.22892 -31.68 
L 592.564277 -31.68 
L 593.899634 -31.68 
L 595.234991 -31.68 
L 596.570348 -31.68 
L 597.905705 -31.68 
L 599.241062 -31.68 
L 600.576419 -31.68 
L 601.911776 -31.68 
L 603.247133 -31.68 
L 604.58249 -31.68 
L 605.917847 -31.68 
L 607.253204 -31.68 
L 608.588561 -31.68 
L 609.923918 -31.68 
L 611.259275 -31.68 
L 612.594632 -31.68 
L 613.929989 -31.68 
L 615.265346 -31.68 
L 616.600703 -31.68 
L 617.936059 -31.68 
L 619.271416 -31.68 
L 620.606773 -31.68 
L 621.94213 -31.68 
L 623.277487 -31.68 
L 624.612844 -31.68 
L 625.948201 -31.68 
L 627.283558 -31.68 
L 628.618915 -31.68 
L 629.954272 -31.68 
L 631.289629 -31.68 
L 632.624986 -31.68 
L 633.960343 -31.68 
L 635.2957 -31.68 
L 636.631057 -31.68 
L 637.966414 -31.68 
L 639.301771 -31.68 
L 640.637128 -31.68 
L 641.972485 -31.68 
L 643.307842 -31.68 
L 644.643199 -31.68 
L 645.978556 -31.68 
L 647.313913 -31.68 
L 648.64927 -31.68 
L 649.984627 -31.68 
L 651.319984 -31.68 
L 652.655341 -31.68 
L 653.990698 -31.68 
L 655.326055 -31.68 
L 656.661412 -31.68 
L 657.996769 -31.68 
L 659.332126 -31.68 
L 660.667483 -31.68 
L 662.00284 -31.68 
L 663.338197 -31.68 
L 664.673554 -31.68 
L 666.008911 -31.68 
L 667.344268 -31.68 
L 668.679625 -31.68 
L 670.014982 -31.68 
L 671.350339 -31.68 
L 672.685696 -31.68 
L 674.021053 -31.68 
L 675.35641 -31.68 
L 676.691767 -31.68 
L 678.027124 -31.68 
L 679.362481 -31.68 
L 680.697838 -31.68 
L 682.033195 -31.68 
L 683.368552 -31.68 
L 684.703909 -31.68 
L 686.039266 -31.68 
L 687.374623 -31.68 
L 688.70998 -31.68 
L 690.045337 -31.68 
L 691.380694 -31.68 
L 692.716051 -31.68 
L 694.051408 -31.68 
L 695.386765 -31.68 
L 696.722122 -31.68 
L 698.057479 -31.68 
L 699.392836 -31.68 
L 700.728193 -31.68 
L 702.06355 -31.68 
L 703.398907 -31.68 
L 704.734264 -31.68 
L 706.069621 -31.68 
L 707.404978 -31.68 
L 708.740335 -31.68 
L 710.075692 -31.68 
L 711.411049 -31.68 
L 712.746406 -31.68 
L 714.081763 -31.68 
L 715.41712 -31.68 
L 716.752477 -31.68 
L 718.087834 -31.68 
L 719.423191 -31.68 
L 720.758548 -31.68 
L 722.093905 -31.68 
L 723.429262 -31.68 
L 724.764619 -31.68 
L 726.099976 -31.68 
L 727.435333 -31.68 
L 728.77069 -31.68 
L 730.106047 -31.68 
L 731.441404 -31.68 
L 732.776761 -31.68 
L 734.112118 -31.68 
L 735.447475 -31.68 
L 736.782832 -31.68 
L 738.118189 -31.68 
L 739.453546 -31.68 
L 740.788903 -31.68 
L 742.12426 -31.68 
L 743.459617 -31.68 
L 744.794974 -31.68 
L 746.130331 -31.68 
L 747.465688 -31.68 
L 748.801045 -31.68 
L 750.136402 -31.68 
L 751.471759 -31.68 
L 752.807116 -31.68 
L 752.807116 -31.681762 
L 752.807116 -31.681762 
L 751.471759 -31.683116 
L 750.136402 -31.685324 
L 748.801045 -31.688794 
L 747.465688 -31.694048 
L 746.130331 -31.701726 
L 744.794974 -31.712564 
L 743.459617 -31.727355 
L 742.12426 -31.746899 
L 740.788903 -31.771941 
L 739.453546 -31.803097 
L 738.118189 -31.840785 
L 736.782832 -31.885149 
L 735.447475 -31.935979 
L 734.112118 -31.992628 
L 732.776761 -32.053941 
L 731.441404 -32.11821 
L 730.106047 -32.183216 
L 728.77069 -32.246373 
L 727.435333 -32.305016 
L 726.099976 -32.356808 
L 724.764619 -32.400205 
L 723.429262 -32.434875 
L 722.093905 -32.461949 
L 720.758548 -32.484016 
L 719.423191 -32.504819 
L 718.087834 -32.528721 
L 716.752477 -32.560059 
L 715.41712 -32.602559 
L 714.081763 -32.658968 
L 712.746406 -32.730976 
L 711.411049 -32.819416 
L 710.075692 -32.924638 
L 708.740335 -33.046872 
L 707.404978 -33.186447 
L 706.069621 -33.343744 
L 704.734264 -33.518922 
L 703.398907 -33.711512 
L 702.06355 -33.920047 
L 700.728193 -34.141913 
L 699.392836 -34.373498 
L 698.057479 -34.610662 
L 696.722122 -34.849423 
L 695.386765 -35.086717 
L 694.051408 -35.321067 
L 692.716051 -35.553089 
L 691.380694 -35.785774 
L 690.045337 -36.024578 
L 688.70998 -36.277325 
L 687.374623 -36.553907 
L 686.039266 -36.865717 
L 684.703909 -37.224728 
L 683.368552 -37.642202 
L 682.033195 -38.127123 
L 680.697838 -38.684584 
L 679.362481 -39.314525 
L 678.027124 -40.011192 
L 676.691767 -40.763624 
L 675.35641 -41.557218 
L 674.021053 -42.376186 
L 672.685696 -43.206421 
L 671.350339 -44.03822 
L 670.014982 -44.868301 
L 668.679625 -45.700747 
L 667.344268 -46.546727 
L 666.008911 -47.423109 
L 664.673554 -48.350229 
L 663.338197 -49.349157 
L 662.00284 -50.438841 
L 660.667483 -51.633465 
L 659.332126 -52.940391 
L 657.996769 -54.358978 
L 656.661412 -55.880553 
L 655.326055 -57.489631 
L 653.990698 -59.166251 
L 652.655341 -60.889043 
L 651.319984 -62.638423 
L 649.984627 -64.399246 
L 648.64927 -66.162385 
L 647.313913 -67.924996 
L 645.978556 -69.689579 
L 644.643199 -71.462259 
L 643.307842 -73.250801 
L 641.972485 -75.062868 
L 640.637128 -76.904728 
L 639.301771 -78.780428 
L 637.966414 -80.691244 
L 636.631057 -82.635203 
L 635.2957 -84.606604 
L 633.960343 -86.595714 
L 632.624986 -88.588943 
L 631.289629 -90.569865 
L 629.954272 -92.521257 
L 628.618915 -94.427968 
L 627.283558 -96.280041 
L 625.948201 -98.075203 
L 624.612844 -99.819828 
L 623.277487 -101.527799 
L 621.94213 -103.217295 
L 620.606773 -104.906255 
L 619.271416 -106.607824 
L 617.936059 -108.327264 
L 616.600703 -110.061424 
L 615.265346 -111.801109 
L 613.929989 -113.535677 
L 612.594632 -115.258408 
L 611.259275 -116.970879 
L 609.923918 -118.684877 
L 608.588561 -120.421164 
L 607.253204 -122.205429 
L 605.917847 -124.062566 
L 604.58249 -126.010821 
L 603.247133 -128.057248 
L 601.911776 -130.195393 
L 600.576419 -132.405543 
L 599.241062 -134.657241 
L 597.905705 -136.913485 
L 596.570348 -139.135836 
L 595.234991 -141.28969 
L 593.899634 -143.349029 
L 592.564277 -145.300083 
L 591.22892 -147.143491 
L 589.893563 -148.894675 
L 588.558206 -150.582385 
L 587.222849 -152.245495 
L 585.887492 -153.928317 
L 584.552135 -155.674765 
L 583.216778 -157.521841 
L 581.881421 -159.493071 
L 580.546064 -161.592705 
L 579.210707 -163.801682 
L 577.87535 -166.076399 
L 576.539993 -168.351059 
L 575.204636 -170.54385 
L 573.869279 -172.566407 
L 572.533922 -174.335243 
L 571.198565 -175.78324 
L 569.863208 -176.869212 
L 568.527851 -177.583927 
L 567.192494 -177.951783 
L 565.857137 -178.028281 
L 564.52178 -177.894268 
L 563.186423 -177.648334 
L 561.851066 -177.398757 
L 560.515709 -177.256011 
L 559.180352 -177.326248 
L 557.844995 -177.705672 
L 556.509638 -178.475403 
L 555.174281 -179.69641 
L 553.838924 -181.404418 
L 552.503567 -183.605094 
L 551.16821 -186.27032 
L 549.832853 -189.336627 
L 548.497496 -192.706853 
L 547.162139 -196.255694 
L 545.826782 -199.839149 
L 544.491425 -203.306999 
L 543.156068 -206.516754 
L 541.820711 -209.347064 
L 540.485354 -211.708574 
L 539.149997 -213.550618 
L 537.81464 -214.862787 
L 536.479283 -215.671094 
L 535.143926 -216.029108 
L 533.808569 -216.004885 
L 532.473212 -215.665011 
L 531.137855 -215.057468 
L 529.802498 -214.19554 
L 528.467141 -213.045254 
L 527.131784 -211.518861 
L 525.796427 -209.476323 
L 524.46107 -206.735714 
L 523.125713 -203.092012 
L 521.790356 -198.34229 
L 520.454999 -192.314132 
L 519.119642 -184.893484 
L 517.784285 -176.04808 
L 516.448928 -165.843101 
L 515.113571 -154.446558 
L 513.778214 -142.123099 
L 512.442857 -129.216284 
L 511.1075 -116.120918 
L 509.772143 -103.248571 
L 508.436786 -90.990669 
L 507.101429 -79.684186 
L 505.766072 -69.58475 
L 504.430715 -60.850741 
L 503.095358 -53.540026 
L 501.760001 -47.618675 
L 500.424644 -42.978967 
L 499.089287 -39.462752 
L 497.75393 -36.885858 
L 496.418573 -35.059905 
L 495.083216 -33.809052 
L 493.747859 -32.980708 
L 492.412502 -32.450458 
L 491.077145 -32.12236 
L 489.741788 -31.926127 
L 488.406431 -31.812681 
L 487.071074 -31.749286 
z
" id="m33725205d3" style="stroke:#ff6962;"/>
    </defs>
    <g clip-path="url(#pa58d126b1b)">
     <use style="fill:#ff6962;fill-opacity:0.25;stroke:#ff6962;" x="0" xlink:href="#m33725205d3" y="288"/>
    </g>
   </g>
   <g id="patch_11">
    <path d="M 473.236364 256.32 
L 473.236364 34.56 
" style="fill:none;stroke:#cccccc;stroke-linecap:square;stroke-linejoin:miter;stroke-width:0.8;"/>
   </g>
   <g id="patch_12">
    <path d="M 777.6 256.32 
L 777.6 34.56 
" style="fill:none;stroke:#cccccc;stroke-linecap:square;stroke-linejoin:miter;stroke-width:0.8;"/>
   </g>
   <g id="patch_13">
    <path d="M 473.236364 256.32 
L 777.6 256.32 
" style="fill:none;stroke:#cccccc;stroke-linecap:square;stroke-linejoin:miter;stroke-width:0.8;"/>
   </g>
   <g id="patch_14">
    <path d="M 473.236364 34.56 
L 777.6 34.56 
" style="fill:none;stroke:#cccccc;stroke-linecap:square;stroke-linejoin:miter;stroke-width:0.8;"/>
   </g>
   <g id="legend_2">
    <g id="patch_15">
     <path d="M 691.35625 70.850625 
L 770.6 70.850625 
Q 772.6 70.850625 772.6 68.850625 
L 772.6 41.56 
Q 772.6 39.56 770.6 39.56 
L 691.35625 39.56 
Q 689.35625 39.56 689.35625 41.56 
L 689.35625 68.850625 
Q 689.35625 70.850625 691.35625 70.850625 
z
" style="fill:#ffffff;opacity:0.8;stroke:#cccccc;stroke-linejoin:miter;"/>
    </g>
    <g id="patch_16">
     <path d="M 693.35625 50.717813 
L 713.35625 50.717813 
L 713.35625 43.717813 
L 693.35625 43.717813 
z
" style="fill:#77dd76;fill-opacity:0.25;stroke:#77dd76;stroke-linejoin:miter;"/>
    </g>
    <g id="text_32">
     <!-- No Default -->
     <g style="fill:#262626;" transform="translate(721.35625 50.717813)scale(0.1 -0.1)">
      <use xlink:href="#ArialMT-78"/>
      <use x="72.216797" xlink:href="#ArialMT-111"/>
      <use x="127.832031" xlink:href="#ArialMT-32"/>
      <use x="155.615234" xlink:href="#ArialMT-68"/>
      <use x="227.832031" xlink:href="#ArialMT-101"/>
      <use x="283.447266" xlink:href="#ArialMT-102"/>
      <use x="311.230469" xlink:href="#ArialMT-97"/>
      <use x="366.845703" xlink:href="#ArialMT-117"/>
      <use x="422.460938" xlink:href="#ArialMT-108"/>
      <use x="444.677734" xlink:href="#ArialMT-116"/>
     </g>
    </g>
    <g id="patch_17">
     <path d="M 693.35625 64.863125 
L 713.35625 64.863125 
L 713.35625 57.863125 
L 693.35625 57.863125 
z
" style="fill:#ff6962;fill-opacity:0.25;stroke:#ff6962;stroke-linejoin:miter;"/>
    </g>
    <g id="text_33">
     <!-- Default -->
     <g style="fill:#262626;" transform="translate(721.35625 64.863125)scale(0.1 -0.1)">
      <use xlink:href="#ArialMT-68"/>
      <use x="72.216797" xlink:href="#ArialMT-101"/>
      <use x="127.832031" xlink:href="#ArialMT-102"/>
      <use x="155.615234" xlink:href="#ArialMT-97"/>
      <use x="211.230469" xlink:href="#ArialMT-117"/>
      <use x="266.845703" xlink:href="#ArialMT-108"/>
      <use x="289.0625" xlink:href="#ArialMT-116"/>
     </g>
    </g>
   </g>
  </g>
 </g>
 <defs>
  <clipPath id="p2eb1bbd3a1">
   <rect height="221.76" width="304.363636" x="108" y="34.56"/>
  </clipPath>
  <clipPath id="pa58d126b1b">
   <rect height="221.76" width="304.363636" x="473.236364" y="34.56"/>
  </clipPath>
 </defs>
</svg>
